<svg width="882" height="456" viewBox="0 0 882 456" fill="none" xmlns="http://www.w3.org/2000/svg">
<g id="Frame 504">
<g id="tech">
<circle id="circle1" cx="661.353" cy="211.588" r="191.676" fill="#4271EB" fill-opacity="0.05" stroke="#4271EB" stroke-linecap="square" stroke-dasharray="8 8"/>
<g id="logos:python">
<rect x="473.68" y="80.7163" width="51.8172" height="53.2512" rx="10.554" fill="#060E1F"/>
<rect x="473.68" y="80.7163" width="51.8172" height="53.2512" rx="10.554" stroke="#12192B" stroke-width="1.24164"/>
<g id="Group 6">
<path id="Vector" d="M499.477 91.879C491.617 91.879 492.108 95.3014 492.108 95.3014L492.117 98.8471H499.617V99.9117H489.138C489.138 99.9117 484.108 99.3389 484.108 107.302C484.108 115.265 488.498 114.983 488.498 114.983H491.118V111.287C491.118 111.287 490.977 106.88 495.437 106.88H502.876C502.876 106.88 507.056 106.947 507.056 102.824V96.0054C507.056 96.0054 507.691 91.879 499.477 91.879ZM495.341 94.2634C495.518 94.2632 495.694 94.2982 495.858 94.3662C496.021 94.4342 496.17 94.534 496.296 94.6599C496.421 94.7857 496.52 94.9351 496.588 95.0996C496.656 95.264 496.691 95.4403 496.69 95.6183C496.691 95.7962 496.656 95.9725 496.588 96.1369C496.52 96.3014 496.421 96.4508 496.296 96.5766C496.17 96.7025 496.021 96.8023 495.858 96.8703C495.694 96.9383 495.518 96.9733 495.341 96.9731C495.164 96.9733 494.988 96.9383 494.825 96.8703C494.661 96.8023 494.512 96.7025 494.387 96.5766C494.261 96.4508 494.162 96.3014 494.094 96.1369C494.026 95.9725 493.992 95.7962 493.992 95.6183C493.992 95.4403 494.026 95.264 494.094 95.0996C494.162 94.9351 494.261 94.7857 494.387 94.6599C494.512 94.534 494.661 94.4342 494.825 94.3662C494.988 94.2982 495.164 94.2632 495.341 94.2634Z" fill="url(#paint0_linear_577_100)"/>
<path id="Vector_2" d="M499.7 122.805C507.559 122.805 507.069 119.382 507.069 119.382L507.06 115.837H499.56V114.772H510.039C510.039 114.772 515.068 115.345 515.068 107.382C515.068 99.4186 510.679 99.701 510.679 99.701H508.059V103.396C508.059 103.396 508.2 107.804 503.739 107.804H496.3C496.3 107.804 492.121 107.736 492.121 111.86V118.678C492.121 118.678 491.486 122.805 499.7 122.805M503.835 120.42C503.658 120.421 503.483 120.386 503.319 120.318C503.155 120.25 503.006 120.15 502.881 120.024C502.756 119.898 502.656 119.749 502.589 119.584C502.521 119.42 502.486 119.244 502.486 119.066C502.486 118.888 502.521 118.711 502.588 118.547C502.656 118.382 502.756 118.233 502.881 118.107C503.006 117.981 503.155 117.882 503.319 117.813C503.483 117.745 503.658 117.71 503.835 117.711C504.013 117.71 504.188 117.745 504.352 117.813C504.516 117.881 504.665 117.981 504.79 118.107C504.915 118.233 505.015 118.382 505.082 118.547C505.15 118.711 505.185 118.888 505.185 119.065C505.185 119.243 505.15 119.42 505.082 119.584C505.015 119.749 504.915 119.898 504.79 120.024C504.665 120.15 504.516 120.25 504.352 120.318C504.188 120.386 504.013 120.421 503.835 120.42Z" fill="url(#paint1_linear_577_100)"/>
</g>
</g>
<g id="logos:python_2">
<rect x="442.621" y="202.363" width="51.8172" height="53.2512" rx="10.554" fill="#060E1F"/>
<rect x="442.621" y="202.363" width="51.8172" height="53.2512" rx="10.554" stroke="#12192B" stroke-width="1.24164"/>
<g id="devicon:mysql">
<g id="Vector_3">
<path d="M482.738 236.871C480.977 236.824 479.632 236.985 478.482 237.46C478.397 237.496 478.298 237.522 478.198 237.549C477.915 237.624 477.62 237.703 477.581 238C477.685 238.107 477.738 238.246 477.793 238.387C477.832 238.489 477.871 238.593 477.931 238.687C478.206 239.122 478.669 239.706 479.083 240.013C479.147 240.06 479.212 240.108 479.277 240.156C479.668 240.447 480.07 240.745 480.485 240.993C480.904 241.244 481.347 241.442 481.787 241.639C482.252 241.847 482.713 242.053 483.139 242.318C483.484 242.533 483.828 242.787 484.168 243.039C484.31 243.144 484.451 243.248 484.591 243.349C484.676 243.41 484.751 243.484 484.827 243.558C484.961 243.688 485.096 243.821 485.292 243.889V243.841C485.206 243.734 485.155 243.607 485.103 243.479C485.057 243.365 485.011 243.252 484.941 243.153L484.29 242.515C483.653 241.687 482.845 240.96 481.987 240.356C481.799 240.224 481.548 240.079 481.275 239.922C480.555 239.507 479.691 239.009 479.483 238.442L479.433 238.393C479.829 238.349 480.281 238.226 480.677 238.118C480.767 238.094 480.853 238.07 480.936 238.049C481.314 237.95 481.673 237.913 482.034 237.876C482.392 237.84 482.752 237.804 483.139 237.705L484.19 237.411V237.215C484.02 237.044 483.87 236.848 483.721 236.652C483.526 236.397 483.331 236.142 483.089 235.94C481.967 235.004 480.744 234.069 479.484 233.29C479.053 233.023 478.559 232.814 478.069 232.606C477.766 232.478 477.464 232.35 477.181 232.21C477.095 232.168 476.988 232.132 476.877 232.096C476.664 232.026 476.437 231.952 476.329 231.817C476.064 231.486 475.881 231.094 475.696 230.698C475.61 230.514 475.524 230.329 475.428 230.149C474.8 228.962 474.183 227.667 473.625 226.419C473.499 226.136 473.387 225.854 473.277 225.576C473.056 225.018 472.84 224.475 472.524 223.965C470.251 220.302 467.804 218.09 464.012 215.917C463.303 215.511 462.467 215.321 461.578 215.118C461.456 215.09 461.332 215.062 461.208 215.033L459.555 214.936C459.357 214.855 459.155 214.682 458.957 214.513C458.819 214.395 458.683 214.279 458.554 214.199C457.298 213.42 454.076 211.729 453.145 213.953C452.653 215.131 453.606 216.285 454.235 217.046C454.355 217.192 454.463 217.323 454.548 217.438C454.625 217.542 454.707 217.649 454.79 217.759C455.104 218.171 455.441 218.613 455.649 219.056C455.746 219.263 455.798 219.47 455.851 219.681C455.893 219.846 455.935 220.014 456 220.185C456.097 220.441 456.19 220.702 456.284 220.965C456.543 221.692 456.806 222.429 457.152 223.081C457.389 223.53 457.652 224.003 457.953 224.406C458.015 224.488 458.091 224.555 458.167 224.622C458.319 224.756 458.47 224.889 458.504 225.142C458.301 225.419 458.224 225.796 458.146 226.174C458.104 226.374 458.063 226.575 458.003 226.762C457.22 229.18 457.516 232.186 458.654 233.975C459.003 234.525 459.826 235.703 460.957 235.252C461.665 234.968 461.753 234.261 461.85 233.486C461.888 233.178 461.928 232.86 462.009 232.553C462.032 232.463 462.042 232.382 462.051 232.308C462.066 232.179 462.079 232.068 462.159 231.964V232.013L463.061 233.779C463.728 234.832 464.911 235.932 465.914 236.675C466.1 236.813 466.272 236.986 466.446 237.162C466.761 237.479 467.084 237.806 467.517 237.951V237.901H467.467C467.386 237.778 467.277 237.7 467.167 237.62C467.098 237.571 467.03 237.521 466.967 237.461C466.575 237.083 466.139 236.615 465.815 236.184C464.902 234.97 464.096 233.641 463.362 232.259C463.07 231.711 462.811 231.116 462.562 230.545C462.51 230.428 462.46 230.312 462.409 230.198C462.372 230.112 462.347 230.013 462.321 229.912C462.27 229.708 462.219 229.502 462.059 229.413C461.936 229.599 461.791 229.773 461.645 229.948C461.405 230.234 461.163 230.524 461.007 230.884C460.687 231.63 460.59 232.507 460.487 233.432C460.462 233.66 460.436 233.891 460.407 234.123C460.358 234.14 460.349 234.141 460.341 234.146C460.334 234.149 460.329 234.155 460.307 234.172C459.663 234.02 459.405 233.409 459.165 232.841C459.145 232.793 459.125 232.746 459.105 232.7C458.449 231.174 458.327 228.716 458.904 226.958C458.935 226.865 458.988 226.73 459.05 226.571C459.291 225.958 459.672 224.986 459.455 224.652C459.371 224.383 459.164 224.187 458.963 223.996C458.851 223.889 458.74 223.785 458.654 223.67C458.356 223.274 458.059 222.753 457.853 222.296C457.594 221.722 457.402 221.114 457.209 220.504C457.002 219.848 456.793 219.19 456.501 218.567C456.266 218.068 455.893 217.565 455.553 217.107C455.501 217.036 455.45 216.967 455.399 216.899C455.266 216.716 455.127 216.55 454.99 216.384C454.7 216.036 454.416 215.694 454.197 215.229C454.083 214.986 453.928 214.596 454.097 214.347C454.151 214.177 454.227 214.107 454.398 214.052C454.688 213.832 455.497 214.125 455.799 214.248C456.602 214.575 457.272 214.886 457.953 215.328C458.069 215.404 458.186 215.504 458.305 215.607C458.522 215.794 458.75 215.991 459.004 216.064H459.455C459.783 216.138 460.13 216.154 460.474 216.169C460.867 216.187 461.256 216.204 461.608 216.309C462.772 216.656 463.815 217.196 464.762 217.782C467.648 219.568 470.008 222.109 471.622 225.143C471.775 225.43 471.877 225.71 471.981 225.996C472.055 226.197 472.129 226.401 472.223 226.615C472.464 227.16 472.737 227.714 473.009 228.264C473.258 228.767 473.505 229.268 473.724 229.756C473.751 229.815 473.778 229.875 473.804 229.934C474.236 230.894 474.667 231.853 475.277 232.652C475.513 232.96 476.213 233.169 476.82 233.351C477.092 233.432 477.345 233.507 477.53 233.584C477.678 233.645 477.859 233.707 478.05 233.772C478.398 233.891 478.776 234.021 479.033 234.173C479.629 234.525 480.21 234.93 480.776 235.325C480.931 235.433 481.084 235.54 481.236 235.645C481.315 235.699 481.43 235.768 481.561 235.847C482.024 236.124 482.695 236.527 482.738 236.871ZM460.356 218.174C459.989 218.168 459.729 218.213 459.455 218.272V218.321H459.504C459.611 218.534 459.766 218.702 459.92 218.868C460.02 218.976 460.12 219.084 460.206 219.204L460.706 220.235L460.756 220.187C461.066 219.972 461.208 219.63 461.206 219.107C461.136 219.034 461.1 218.952 461.063 218.867C461.033 218.8 461.003 218.732 460.956 218.665C460.871 218.543 460.737 218.453 460.605 218.363C460.517 218.303 460.428 218.243 460.356 218.175L460.356 218.174Z" fill="#00618A"/>
<path d="M482.738 236.871C480.977 236.824 479.632 236.985 478.482 237.46C478.397 237.496 478.298 237.522 478.198 237.549C477.915 237.624 477.62 237.703 477.581 238C477.685 238.107 477.738 238.246 477.793 238.387C477.832 238.489 477.871 238.593 477.931 238.687C478.206 239.122 478.669 239.706 479.083 240.013C479.147 240.06 479.212 240.108 479.277 240.156C479.668 240.447 480.07 240.745 480.485 240.993C480.904 241.244 481.347 241.442 481.787 241.639C482.252 241.847 482.713 242.053 483.139 242.318C483.484 242.533 483.828 242.787 484.168 243.039C484.31 243.144 484.451 243.248 484.591 243.349C484.676 243.41 484.751 243.484 484.827 243.558C484.961 243.688 485.096 243.821 485.292 243.889V243.841C485.206 243.734 485.155 243.607 485.103 243.479C485.057 243.365 485.011 243.252 484.941 243.153L484.29 242.515C483.653 241.687 482.845 240.96 481.987 240.356C481.799 240.224 481.548 240.079 481.275 239.922C480.555 239.507 479.691 239.009 479.483 238.442L479.433 238.393C479.829 238.349 480.281 238.226 480.677 238.118C480.767 238.094 480.853 238.07 480.936 238.049C481.314 237.95 481.673 237.913 482.034 237.876C482.392 237.84 482.752 237.804 483.139 237.705L484.19 237.411V237.215C484.02 237.044 483.87 236.848 483.721 236.652C483.526 236.397 483.331 236.142 483.089 235.94C481.967 235.004 480.744 234.069 479.484 233.29C479.053 233.023 478.559 232.814 478.069 232.606C477.766 232.478 477.464 232.35 477.181 232.21C477.095 232.168 476.988 232.132 476.877 232.096C476.664 232.026 476.437 231.952 476.329 231.817C476.064 231.486 475.881 231.094 475.696 230.698C475.61 230.514 475.524 230.329 475.428 230.149C474.8 228.962 474.183 227.667 473.625 226.419C473.499 226.136 473.387 225.854 473.277 225.576C473.056 225.018 472.84 224.475 472.524 223.965C470.251 220.302 467.804 218.09 464.012 215.917C463.303 215.511 462.467 215.321 461.578 215.118C461.456 215.09 461.332 215.062 461.208 215.033L459.555 214.936C459.357 214.855 459.155 214.682 458.957 214.513C458.819 214.395 458.683 214.279 458.554 214.199C457.298 213.42 454.076 211.729 453.145 213.953C452.653 215.131 453.606 216.285 454.235 217.046C454.355 217.192 454.463 217.323 454.548 217.438C454.625 217.542 454.707 217.649 454.79 217.759C455.104 218.171 455.441 218.613 455.649 219.056C455.746 219.263 455.798 219.47 455.851 219.681C455.893 219.846 455.935 220.014 456 220.185C456.097 220.441 456.19 220.702 456.284 220.965C456.543 221.692 456.806 222.429 457.152 223.081C457.389 223.53 457.652 224.003 457.953 224.406C458.015 224.488 458.091 224.555 458.167 224.622C458.319 224.756 458.47 224.889 458.504 225.142C458.301 225.419 458.224 225.796 458.146 226.174C458.104 226.374 458.063 226.575 458.003 226.762C457.22 229.18 457.516 232.186 458.654 233.975C459.003 234.525 459.826 235.703 460.957 235.252C461.665 234.968 461.753 234.261 461.85 233.486C461.888 233.178 461.928 232.86 462.009 232.553C462.032 232.463 462.042 232.382 462.051 232.308C462.066 232.179 462.079 232.068 462.159 231.964V232.013L463.061 233.779C463.728 234.832 464.911 235.932 465.914 236.675C466.1 236.813 466.272 236.986 466.446 237.162C466.761 237.479 467.084 237.806 467.517 237.951V237.901H467.467C467.386 237.778 467.277 237.7 467.167 237.62C467.098 237.571 467.03 237.521 466.967 237.461C466.575 237.083 466.139 236.615 465.815 236.184C464.902 234.97 464.096 233.641 463.362 232.259C463.07 231.711 462.811 231.116 462.562 230.545C462.51 230.428 462.46 230.312 462.409 230.198C462.372 230.112 462.347 230.013 462.321 229.912C462.27 229.708 462.219 229.502 462.059 229.413C461.936 229.599 461.791 229.773 461.645 229.948C461.405 230.234 461.163 230.524 461.007 230.884C460.687 231.63 460.59 232.507 460.487 233.432C460.462 233.66 460.436 233.891 460.407 234.123C460.358 234.14 460.349 234.141 460.341 234.146C460.334 234.149 460.329 234.155 460.307 234.172C459.663 234.02 459.405 233.409 459.165 232.841C459.145 232.793 459.125 232.746 459.105 232.7C458.449 231.174 458.327 228.716 458.904 226.958C458.935 226.865 458.988 226.73 459.05 226.571C459.291 225.958 459.672 224.986 459.455 224.652C459.371 224.383 459.164 224.187 458.963 223.996C458.851 223.889 458.74 223.785 458.654 223.67C458.356 223.274 458.059 222.753 457.853 222.296C457.594 221.722 457.402 221.114 457.209 220.504C457.002 219.848 456.793 219.19 456.501 218.567C456.266 218.068 455.893 217.565 455.553 217.107C455.501 217.036 455.45 216.967 455.399 216.899C455.266 216.716 455.127 216.55 454.99 216.384C454.7 216.036 454.416 215.694 454.197 215.229C454.083 214.986 453.928 214.596 454.097 214.347C454.151 214.177 454.227 214.107 454.398 214.052C454.688 213.832 455.497 214.125 455.799 214.248C456.602 214.575 457.272 214.886 457.953 215.328C458.069 215.404 458.186 215.504 458.305 215.607C458.522 215.794 458.75 215.991 459.004 216.064H459.455C459.783 216.138 460.13 216.154 460.474 216.169C460.867 216.187 461.256 216.204 461.608 216.309C462.772 216.656 463.815 217.196 464.762 217.782C467.648 219.568 470.008 222.109 471.622 225.143C471.775 225.43 471.877 225.71 471.981 225.996C472.055 226.197 472.129 226.401 472.223 226.615C472.464 227.16 472.737 227.714 473.009 228.264C473.258 228.767 473.505 229.268 473.724 229.756C473.751 229.815 473.778 229.875 473.804 229.934C474.236 230.894 474.667 231.853 475.277 232.652C475.513 232.96 476.213 233.169 476.82 233.351C477.092 233.432 477.345 233.507 477.53 233.584C477.678 233.645 477.859 233.707 478.05 233.772C478.398 233.891 478.776 234.021 479.033 234.173C479.629 234.525 480.21 234.93 480.776 235.325C480.931 235.433 481.084 235.54 481.236 235.645C481.315 235.699 481.43 235.768 481.561 235.847C482.024 236.124 482.695 236.527 482.738 236.871ZM460.356 218.174C459.989 218.168 459.729 218.213 459.455 218.272V218.321H459.504C459.611 218.534 459.766 218.702 459.92 218.868C460.02 218.976 460.12 219.084 460.206 219.204L460.706 220.235L460.756 220.187C461.066 219.972 461.208 219.63 461.206 219.107C461.136 219.034 461.1 218.952 461.063 218.867C461.033 218.8 461.003 218.732 460.956 218.665C460.871 218.543 460.737 218.453 460.605 218.363C460.517 218.303 460.428 218.243 460.356 218.175L460.356 218.174Z" stroke="#F7F9FC"/>
</g>
</g>
</g>
<g id="logos:python_3">
<rect x="587.546" y="0.604483" width="50.4536" height="51.8499" rx="10.2762" fill="#060E1F"/>
<rect x="587.546" y="0.604483" width="50.4536" height="51.8499" rx="10.2762" stroke="#12192B" stroke-width="1.20897"/>
<g id="devicon:git" clip-path="url(#clip0_577_100)">
<path id="Vector_4" d="M627.66 25.1513L614.15 11.6423C613.373 10.8643 612.111 10.8643 611.332 11.6423L608.527 14.4478L612.086 18.0063C612.913 17.7271 613.861 17.9144 614.52 18.5735C615.183 19.2368 615.368 20.1929 615.082 21.0229L618.512 24.4527C619.342 24.1667 620.299 24.3515 620.962 25.0153C621.888 25.941 621.888 27.4418 620.962 28.3681C620.741 28.5884 620.48 28.7632 620.192 28.8824C619.905 29.0016 619.596 29.063 619.285 29.063C618.973 29.063 618.665 29.0016 618.377 28.8824C618.089 28.7632 617.828 28.5884 617.608 28.3681C617.277 28.0371 617.051 27.6156 616.96 27.1568C616.868 26.6979 616.914 26.2221 617.092 25.7893L613.894 22.5911L613.893 31.0085C614.125 31.1227 614.337 31.2741 614.52 31.4565C615.446 32.3823 615.446 33.8826 614.52 34.8104C613.594 35.7361 612.093 35.7361 611.167 34.8104C610.241 33.8829 610.241 32.3825 611.167 31.4565C611.389 31.2343 611.653 31.0585 611.944 30.9393V22.444C611.653 22.3252 611.389 22.1493 611.167 21.9266C610.466 21.2256 610.297 20.1961 610.657 19.3343L607.149 15.8261L597.885 25.0888C597.512 25.4626 597.302 25.9696 597.302 26.4982C597.302 27.0268 597.512 27.5337 597.885 27.9076L611.395 41.4166C612.173 42.1946 613.434 42.1946 614.214 41.4166L627.66 27.9703C628.034 27.5964 628.243 27.0894 628.243 26.5607C628.243 26.0321 628.033 25.5252 627.66 25.1513Z" fill="#F34F29"/>
</g>
</g>
<g id="logos:python_4">
<rect x="744.163" y="25.2222" width="52.9148" height="54.3792" rx="10.7775" fill="#060E1F"/>
<rect x="744.163" y="25.2222" width="52.9148" height="54.3792" rx="10.7775" stroke="#12192B" stroke-width="1.26794"/>
<g id="logos:microsoft-power-bi" clip-path="url(#clip1_577_100)">
<g id="Mask group">
<mask id="mask0_577_100" style="mask-type:luminance" maskUnits="userSpaceOnUse" x="758" y="36" width="25" height="33">
<g id="Group">
<path id="Vector_5" d="M771.948 37.7723C771.948 37.0389 772.543 36.4443 773.276 36.4443H781.245C781.978 36.4443 782.573 37.0389 782.573 37.7723V66.9893C782.573 67.7227 781.978 68.3172 781.245 68.3172H759.996C759.263 68.3172 758.668 67.7227 758.668 66.9892V53.7089C758.668 52.9754 759.263 52.3809 759.996 52.3809H765.308V45.7406C765.308 45.0071 765.903 44.4125 766.636 44.4125H771.948V37.7723Z" fill="white"/>
</g>
</mask>
<g mask="url(#mask0_577_100)">
<path id="Vector_6" d="M782.573 36.4445V68.3174H771.949V36.4445H782.573Z" fill="url(#paint2_linear_577_100)"/>
</g>
</g>
<g id="Mask group_2">
<mask id="mask1_577_100" style="mask-type:luminance" maskUnits="userSpaceOnUse" x="758" y="36" width="25" height="33">
<g id="Group_2">
<path id="Vector_7" d="M771.948 37.7723C771.948 37.0389 772.543 36.4443 773.276 36.4443H781.245C781.978 36.4443 782.573 37.0389 782.573 37.7723V66.9893C782.573 67.7227 781.978 68.3172 781.245 68.3172H759.996C759.263 68.3172 758.668 67.7227 758.668 66.9892V53.7089C758.668 52.9754 759.263 52.3809 759.996 52.3809H765.308V45.7406C765.308 45.0071 765.903 44.4125 766.636 44.4125H771.948V37.7723Z" fill="white"/>
</g>
</mask>
<g mask="url(#mask1_577_100)">
<path id="Vector_8" d="M775.933 45.8736V68.4503H765.308V44.5455H774.605C775.338 44.5455 775.933 45.1401 775.933 45.8736" fill="black" fill-opacity="0.2"/>
</g>
</g>
<g id="Mask group_3">
<mask id="mask2_577_100" style="mask-type:luminance" maskUnits="userSpaceOnUse" x="758" y="36" width="25" height="33">
<g id="Group_3">
<path id="Vector_9" d="M771.948 37.7723C771.948 37.0389 772.543 36.4443 773.276 36.4443H781.245C781.978 36.4443 782.573 37.0389 782.573 37.7723V66.9893C782.573 67.7227 781.978 68.3172 781.245 68.3172H759.996C759.263 68.3172 758.668 67.7227 758.668 66.9892V53.7089C758.668 52.9754 759.263 52.3809 759.996 52.3809H765.308V45.7406C765.308 45.0071 765.903 44.4125 766.636 44.4125H771.948V37.7723Z" fill="white"/>
</g>
</mask>
<g mask="url(#mask2_577_100)">
<path id="Vector_10" d="M775.933 46.4048V68.9814H765.308V45.0767H774.605C775.338 45.0767 775.933 45.6713 775.933 46.4048" fill="black" fill-opacity="0.18"/>
</g>
</g>
<g id="Mask group_4">
<mask id="mask3_577_100" style="mask-type:luminance" maskUnits="userSpaceOnUse" x="758" y="36" width="25" height="33">
<g id="Group_4">
<path id="Vector_11" d="M771.948 37.7723C771.948 37.0389 772.543 36.4443 773.276 36.4443H781.245C781.978 36.4443 782.573 37.0389 782.573 37.7723V66.9893C782.573 67.7227 781.978 68.3172 781.245 68.3172H759.996C759.263 68.3172 758.668 67.7227 758.668 66.9892V53.7089C758.668 52.9754 759.263 52.3809 759.996 52.3809H765.308V45.7406C765.308 45.0071 765.903 44.4125 766.636 44.4125H771.948V37.7723Z" fill="white"/>
</g>
</mask>
<g mask="url(#mask3_577_100)">
<path id="Vector_12" d="M775.933 45.7408V68.3174H765.308V44.4127H774.605C775.338 44.4127 775.933 45.0073 775.933 45.7408" fill="url(#paint3_linear_577_100)"/>
</g>
</g>
<g id="Mask group_5">
<mask id="mask4_577_100" style="mask-type:luminance" maskUnits="userSpaceOnUse" x="758" y="36" width="25" height="33">
<g id="Group_5">
<path id="Vector_13" d="M771.948 37.7723C771.948 37.0389 772.543 36.4443 773.276 36.4443H781.245C781.978 36.4443 782.573 37.0389 782.573 37.7723V66.9893C782.573 67.7227 781.978 68.3172 781.245 68.3172H759.996C759.263 68.3172 758.668 67.7227 758.668 66.9892V53.7089C758.668 52.9754 759.263 52.3809 759.996 52.3809H765.308V45.7406C765.308 45.0071 765.903 44.4125 766.636 44.4125H771.948V37.7723Z" fill="white"/>
</g>
</mask>
<g mask="url(#mask4_577_100)">
<path id="Vector_14" d="M758.668 52.3809V68.3173H769.293V53.709C769.293 52.9755 768.698 52.381 767.965 52.381L758.668 52.3809Z" fill="url(#paint4_linear_577_100)"/>
</g>
</g>
</g>
</g>
<g id="logos:python_5">
<rect x="829.562" y="171.305" width="51.8172" height="53.2512" rx="10.554" fill="#060E1F"/>
<rect x="829.562" y="171.305" width="51.8172" height="53.2512" rx="10.554" stroke="#12192B" stroke-width="1.24164"/>
<g id="devicon:azure" clip-path="url(#clip2_577_100)">
<path id="Vector_15" d="M850.365 183.494H859.432L850.02 211.383C849.923 211.67 849.739 211.919 849.493 212.095C849.247 212.272 848.952 212.367 848.65 212.367H841.593C841.364 212.367 841.138 212.312 840.934 212.207C840.73 212.103 840.554 211.951 840.42 211.765C840.287 211.579 840.199 211.364 840.165 211.137C840.131 210.91 840.152 210.679 840.225 210.462L848.995 184.477C849.092 184.19 849.276 183.941 849.522 183.765C849.767 183.588 850.062 183.493 850.365 183.493V183.494Z" fill="url(#paint5_linear_577_100)"/>
<path id="Vector_16" d="M863.541 202.2H849.162C849.029 202.2 848.898 202.24 848.787 202.315C848.677 202.39 848.591 202.497 848.542 202.621C848.493 202.745 848.483 202.882 848.512 203.012C848.542 203.143 848.61 203.261 848.708 203.352L857.947 211.976C858.216 212.227 858.571 212.367 858.938 212.367H867.08L863.541 202.2Z" fill="#0078D4"/>
<path id="Vector_17" d="M850.365 183.494C850.059 183.493 849.761 183.589 849.514 183.77C849.267 183.95 849.084 184.204 848.992 184.496L840.236 210.438C840.158 210.656 840.133 210.89 840.164 211.119C840.196 211.348 840.282 211.567 840.415 211.756C840.549 211.945 840.726 212.1 840.931 212.206C841.137 212.312 841.365 212.367 841.597 212.367H848.836C849.105 212.318 849.357 212.2 849.566 212.022C849.775 211.845 849.932 211.615 850.023 211.357L851.769 206.211L858.006 212.028C858.268 212.244 858.596 212.364 858.935 212.367H867.046L863.489 202.2L853.118 202.202L859.465 183.494H850.365Z" fill="url(#paint6_linear_577_100)"/>
<path id="Vector_18" d="M861.946 184.476C861.85 184.189 861.666 183.941 861.42 183.764C861.175 183.588 860.88 183.494 860.578 183.494H850.473C850.775 183.494 851.069 183.588 851.315 183.765C851.56 183.941 851.744 184.189 851.841 184.476L860.611 210.461C860.684 210.679 860.705 210.91 860.671 211.137C860.637 211.364 860.55 211.579 860.416 211.765C860.282 211.952 860.106 212.103 859.902 212.208C859.698 212.313 859.472 212.367 859.243 212.367H869.349C869.578 212.367 869.804 212.312 870.008 212.208C870.212 212.103 870.388 211.951 870.521 211.765C870.655 211.579 870.742 211.363 870.776 211.137C870.81 210.91 870.79 210.679 870.717 210.461L861.946 184.476Z" fill="url(#paint7_linear_577_100)"/>
</g>
</g>
<g id="logos:python_6">
<rect x="506.033" y="321.422" width="51.8172" height="53.2512" rx="10.554" fill="#060E1F"/>
<rect x="506.033" y="321.422" width="51.8172" height="53.2512" rx="10.554" stroke="#12192B" stroke-width="1.24164"/>
<g id="devicon:jenkins" clip-path="url(#clip3_577_100)">
<path id="Vector_19" d="M542.207 347.485C542.207 353.306 537.598 358 531.941 358C526.285 358 521.675 353.306 521.675 347.485C521.675 341.665 526.285 336.97 531.941 336.97C537.598 336.97 542.207 341.665 542.207 347.485Z" fill="#D33833" stroke="black" stroke-width="1.24164"/>
<path id="Vector_20" d="M521.498 350.243C521.498 350.243 520.71 338.63 531.41 338.299L530.664 337.055L524.857 339.004L523.198 340.912L521.747 343.69L520.917 346.925L521.166 349.082" fill="#EF3D3A"/>
<path id="Vector_21" d="M524.485 339.889C522.575 341.843 521.393 344.541 521.393 347.527C521.393 350.511 522.575 353.21 524.485 355.164C526.396 357.118 529.029 358.324 531.941 358.324C534.853 358.324 537.487 357.118 539.398 355.164C541.308 353.21 542.49 350.511 542.49 347.527C542.49 344.541 541.308 341.843 539.398 339.889C537.487 337.935 534.853 336.729 531.941 336.729C529.03 336.729 526.396 337.935 524.485 339.889V339.889ZM524.001 355.637C521.972 353.561 520.716 350.692 520.716 347.527C520.716 344.361 521.972 341.492 524.001 339.416C526.031 337.34 528.84 336.053 531.941 336.053C535.042 336.052 537.852 337.34 539.881 339.416C541.911 341.492 543.167 344.361 543.166 347.527C543.166 350.691 541.911 353.561 539.881 355.637C537.852 357.713 535.042 359 531.941 359C528.84 359 526.031 357.713 524.001 355.637Z" fill="#231F20"/>
<path id="Vector_22" d="M536.524 347.547L534.865 347.795L532.626 348.044L531.174 348.086L529.764 348.045L528.685 347.713L527.731 346.676L526.985 344.561L526.819 344.104L525.824 343.773L525.243 342.819L524.828 341.45L525.285 340.247L526.363 339.874L527.234 340.289L527.649 341.201L528.146 341.118L528.312 340.911L528.146 339.957L528.105 338.754L528.353 337.096L528.344 336.148L529.1 334.939L530.427 333.985L532.75 332.99L535.321 333.363L537.561 334.98L538.598 336.639L539.261 337.842L539.427 340.828L538.929 343.4L538.017 345.68L537.146 346.883" fill="#F0D6B7"/>
<path id="Vector_23" d="M537.768 346.344L536.773 347.339V351.196L535.905 354.752L535.487 354.763L535.819 358.744L537.395 358.537L537.022 354.721L536.318 354.741L538.225 354.638C538.225 354.638 539.178 352.233 539.178 352.108C539.178 351.984 540.008 348.625 540.008 348.625L538.141 346.676L537.768 346.344L537.768 346.344ZM527.773 346.966L526.736 347.381L523.418 349.662L523.626 350.325L524.58 353.145L524.994 357.832L525.285 358.329L529.432 359.74L529.681 359.449L529.183 355.965V354.97L535.114 354.721L535.57 354.473L531.962 352.772L532.626 351.487L531.672 351.818L531.298 351.362L530.801 349.206L530.386 349.081L529.473 348.791L528.685 348.086L527.773 346.966Z" fill="#335061"/>
<path id="Vector_24" d="M525.285 340.247L526.363 339.874L527.234 340.289L527.649 341.201L528.146 341.118L528.271 340.621L528.022 339.667L528.271 337.386L528.063 336.141L528.81 335.27L530.427 333.985L529.971 333.363L527.69 334.482L526.736 335.229L526.197 336.39L525.367 337.51L525.119 338.837L525.285 340.247Z" fill="#6D6B6D"/>
<path id="Vector_25" d="M530.837 333.502C530.552 333.499 530.22 333.528 530.22 333.528L527.524 334.566L526.487 335.603L526.031 336.432L526.985 336.349C526.985 336.349 527.607 334.814 530.095 334.068C531.651 333.601 531.31 333.507 530.837 333.502ZM528.063 336.141L525.782 336.681L525.119 338.837L525.285 340.247L525.74 339.957C525.74 339.957 524.87 337.054 528.187 336.639L528.063 336.141Z" fill="#DCD9D8"/>
<path id="Vector_26" d="M533.393 332.642C533.073 332.648 532.757 332.709 532.459 332.824C529.971 333.777 528.146 335.519 528.187 336.639C528.258 338.546 528.229 338.547 528.229 338.547C528.229 338.547 528.934 334.897 532.501 334.192C535.438 333.612 536.98 334.316 537.561 334.98C537.561 334.98 535.56 332.598 533.393 332.642L533.393 332.642ZM537.837 335.395C537.705 335.394 536.646 335.421 536.607 336.432C536.607 336.432 536.607 336.598 536.69 336.763C536.69 336.763 537.644 335.685 538.225 336.266L537.851 335.395C537.851 335.395 537.846 335.395 537.837 335.395ZM531.73 335.882C531.526 335.887 531.275 335.972 530.966 336.183C530.054 336.805 530.137 337.676 530.303 337.842C530.469 338.008 530.424 338.341 530.55 338.112C530.676 337.883 530.635 337.137 531.091 336.93C531.547 336.722 532.295 336.49 532.585 336.876C532.585 336.876 532.458 335.865 531.73 335.882V335.882ZM538.141 338.423C538.141 338.423 537.458 338.567 537.395 339.169C537.332 339.771 538.141 339.293 538.266 339.252L538.141 338.423ZM533.123 338.464C533.123 338.464 532.211 338.589 532.211 339.169C532.211 339.75 533.248 339.708 533.538 339.459L533.123 338.464ZM525.741 339.958L524.787 340.952L524.953 342.197L525.45 343.482L525.99 343.648C525.202 342.695 525.575 342.031 525.741 341.118C525.906 340.206 527.483 341.16 527.483 341.16L527.441 340.537L526.819 340.04L525.741 339.958ZM535.104 341.861C534.831 341.848 534.726 342.742 534.704 342.973C534.779 342.75 535.473 342.301 535.473 342.301C535.473 342.301 535.473 341.962 535.134 341.866C535.124 341.863 535.114 341.861 535.104 341.861ZM534.704 342.973C534.697 342.99 534.696 343.008 534.699 343.026C534.699 343.026 534.701 343.007 534.704 342.973ZM527.611 343.288L527.068 343.814L527.192 345.639L528.52 347.713C528.52 347.713 530.009 348.049 529.847 347.921C528.063 346.51 527.939 343.897 527.898 343.607C527.856 343.317 527.611 343.288 527.611 343.288ZM532.278 343.906C532.114 343.909 532.006 343.962 531.975 344.002C531.872 344.141 532.086 344.893 532.086 344.893L532.294 344.935C532.252 344.105 532.75 344.022 532.75 344.022C532.566 343.933 532.405 343.904 532.278 343.906Z" fill="#F7E4CD"/>
<path id="Vector_27" d="M527.483 346.925L523.418 349.662L523.874 350.948L524.953 355.592L524.994 358.04L525.575 358.247C526.404 356.256 524.787 349.827 524.787 349.827L528.685 348.086L527.483 346.925ZM529.087 351.641L528.976 351.901C528.976 351.901 528.893 352.648 528.893 352.855C528.893 353.063 528.976 354.805 528.976 354.805H529.639V352.316L529.086 351.641L529.087 351.641ZM529.1 355.178L527.234 355.261L527.773 355.634L529.1 355.841V355.178ZM537.768 346.344L536.98 347.215L539.883 349.372L539.966 348.376L537.768 346.344ZM536.939 354.473L535.487 354.763L535.694 355.924C536.234 356.173 537.146 355.509 537.146 355.509L536.939 354.473Z" fill="#49728B"/>
<path id="Vector_28" d="M528.685 347.713V348.086L529.212 348.667L530.871 349.413L530.913 348.169L529.764 348.044L528.685 347.713ZM540.825 353.602L539.498 354.017L538.225 354.638L537.548 354.515L537.021 354.722L537.466 358.206L539.083 357.749L542.152 357.583L542.608 356.174L541.779 353.727L540.825 353.602ZM535.487 354.763L533.07 354.763L529.183 354.97L529.254 356.879L529.681 359.449L530.539 362.934L532.447 363.348L535.599 363.1L535.64 362.477L535.267 359.118L535.487 354.763ZM535.807 354.432L534.894 352.109L533.94 350.74C533.94 350.74 534.147 350.16 534.438 350.16H535.392L536.304 350.492L536.221 352.026L535.807 354.432Z" fill="#F7F9FC"/>
<path id="Vector_29" d="M529.059 348.294L528.935 348.46L529.64 348.957L530.801 349.206L530.759 348.709C530.345 348.833 529.059 348.294 529.059 348.294ZM534.823 350.077L533.87 350.201L535.487 354.017L535.819 354.058L535.985 353.644C535.985 353.644 534.823 351.404 534.823 351.072C534.823 351.072 535.031 350.574 535.321 350.699C535.612 350.823 536.234 351.155 536.234 351.155V350.367L534.823 350.077ZM538.764 354.431L538.225 354.639L538.681 356.92C538.515 356.878 537.437 357.376 537.437 357.376L537.56 358.04L538.017 357.874L539.468 357.667L539.883 358.206L541.127 358.247L541.874 358.081L542.538 357.086L542.496 356.339L542.04 355.012C542.164 356.007 541.666 356.961 541.666 356.961C541.459 356.961 539.137 356.837 539.137 356.837C539.137 356.588 538.764 354.431 538.764 354.431ZM535.57 354.473L534.948 354.722C534.948 354.722 534.741 359.035 535.363 362.104C535.363 362.104 534.119 362.892 532.294 363.099L535.777 362.975L536.192 362.726L535.694 355.924L535.57 354.473ZM536.654 358.91C536.475 358.911 536.21 359.037 536.023 359.025C535.995 359.68 536.087 360.731 536.118 361.418C536.553 361.418 536.74 361.323 537.065 361.213C537.102 360.404 536.809 359.656 536.725 358.917C536.702 358.912 536.678 358.909 536.654 358.91Z" fill="#DCD9D8"/>
<path id="Vector_30" d="M536.98 348.004C536.448 348.028 535.731 348.706 535.397 348.825C535.441 348.949 535.511 349.047 535.517 349.206C535.751 349.148 536.036 349.187 536.239 349.287C536.004 349.313 535.744 349.312 535.589 349.424C535.532 349.588 535.603 349.812 535.564 350.04C536.121 350.197 536.757 350.281 537.461 350.301C537.598 350.124 537.645 349.784 537.628 349.448C537.609 349.043 537.502 348.21 537.252 348.065C537.17 348.017 537.078 347.999 536.98 348.004ZM531.515 348.185C530.951 348.197 531.01 349.181 531.037 349.784C531.06 350.292 531.325 350.831 531.44 351.169C531.494 351.327 531.506 351.494 531.641 351.526C531.88 351.581 532.667 351.267 532.891 351.145C533.365 350.886 533.734 350.475 534.136 350.199L534.151 349.797C533.909 349.677 533.63 349.591 533.274 349.575C533.515 349.454 533.87 349.456 534.09 349.311L534.096 349.151C533.695 349.12 533.542 348.941 533.277 348.797C532.845 348.56 532.195 348.303 531.636 348.196C531.596 348.188 531.556 348.184 531.515 348.185ZM534.772 349.023C534.665 349.024 534.537 349.065 534.391 349.162C534.363 349.468 534.435 349.567 534.496 349.918C535.343 350.183 535.351 349.019 534.772 349.023Z" fill="#D33833"/>
<path id="Vector_31" d="M536.926 347.713L535.351 348.626L535.267 349.081V349.994L535.848 350.201C535.848 350.201 535.557 349.787 535.765 349.662C535.972 349.538 536.18 349.662 536.304 349.455C536.429 349.247 536.304 349.123 536.346 348.874C536.387 348.625 536.594 348.584 536.802 348.543C537.009 348.501 537.59 348.418 537.673 348.626L537.424 347.879L536.926 347.713ZM531.704 347.963C531.498 347.959 531.311 347.993 531.174 348.086C530.199 348.749 530.985 350.282 531.462 351.184C531.422 350.665 531.378 350.147 531.332 349.63C531.244 348.664 531.564 348.833 532.401 348.833C532.529 348.833 533.188 348.985 533.235 349.082C533.461 349.544 532.857 349.441 533.496 349.789C534.035 350.083 534.988 349.611 534.77 348.957C534.648 348.812 534.134 348.912 533.95 348.816L532.978 348.312C532.695 348.165 532.156 347.972 531.704 347.963ZM531.462 351.184C531.472 351.313 531.483 351.441 531.493 351.57L531.641 351.526C531.592 351.428 531.53 351.312 531.462 351.184L531.462 351.184Z" fill="#EF3D3A"/>
<path id="Vector_32" d="M532.806 332.529C531.935 332.545 531.084 332.69 530.374 332.951C529.847 333.145 529.336 333.319 528.872 333.591C527.633 334.318 526.317 334.805 525.95 336.27C525.044 336.675 524.771 337.834 524.817 339.179C524.825 339.441 524.968 339.769 524.919 340.015C524.893 340.141 524.724 340.301 524.69 340.382C524.256 341.417 524.604 342.777 525.105 343.513C525.408 343.957 525.91 344.351 526.572 344.456C526.599 344.852 526.694 345.194 526.877 345.595C526.993 345.849 527.426 346.306 527.267 346.631C527.187 346.794 526.482 347.149 526.248 347.289C525.458 347.763 524.886 348.053 524.158 348.577C523.686 348.917 522.949 348.961 523.065 349.743C523.143 350.272 523.444 350.926 523.616 351.456C523.802 352.028 524.069 352.551 524.222 353.144C524.563 354.466 524.634 355.712 524.717 357.003C524.75 357.509 524.696 358.044 524.827 358.323C524.962 358.611 525.464 358.703 525.826 358.872C526.873 359.355 527.983 360.094 529.355 359.948C529.682 361.048 529.991 362.219 530.384 363.183C531.791 363.689 534.013 363.61 535.476 363.434C535.921 363.38 536.39 363.16 536.494 362.775C536.463 362.537 536.429 362.302 536.444 362.021C536.901 361.926 537.523 361.848 537.624 361.342C537.765 360.632 537.176 359.614 537.372 358.835C537.637 358.749 537.92 358.682 537.878 358.264C538.324 358.032 538.853 357.98 539.418 358.002C539.491 358.142 539.595 358.278 539.688 358.355C540.479 358.514 541.246 358.527 541.903 358.313C542.647 358.07 543.002 356.549 542.832 355.825C542.711 355.312 542.438 354.472 542.205 353.975C541.574 352.627 539.694 353.473 538.688 353.973C539.176 352.689 539.596 351.358 540.027 349.917C540.155 349.485 540.41 348.874 540.353 348.426C540.299 348.006 539.643 347.564 539.298 347.231C539.107 347.046 538.212 346.367 538.16 346.113C538.11 345.867 538.525 345.31 538.658 345.031C538.85 344.633 538.987 344.145 539.082 343.813C539.785 341.34 539.856 337.943 538.851 335.91C538.47 335.14 537.406 334.077 536.74 333.573C535.758 332.831 534.256 332.501 532.806 332.529ZM532.922 333.217C534.097 333.206 535.404 333.621 536.289 334.12C537.029 334.537 537.575 335.344 538.095 336.016C537.365 335.799 536.744 336.171 536.858 336.773C537.468 336.213 538.512 336.767 538.821 337.386C539.116 337.978 539.114 338.855 539.159 339.735C539.269 341.868 538.769 344.07 537.697 345.612C537.41 346.024 537.169 346.474 536.766 346.757C535.795 347.439 534.318 348.058 533.054 347.634C531.383 347.073 530.624 345.96 529.705 344.685C529.73 345.385 530.222 345.96 530.709 346.496C531.132 346.962 531.643 347.49 532.192 347.708C531.734 347.6 531.03 347.566 530.839 347.978C529.77 347.907 528.776 347.797 528.27 347.072C527.871 346.501 527.466 345.529 527.285 344.779C527.247 344.625 527.184 344.296 527.199 344.212C527.259 343.886 527.839 343.743 527.611 343.288C527.19 343.284 527.095 343.671 526.709 343.71C525.708 343.809 525.003 342.384 525.048 341.524C525.087 340.793 525.705 340.094 526.55 340.186C527.147 340.252 527.35 340.904 527.466 341.484C527.81 341.502 528.308 341.469 528.471 341.2C528.447 340.545 528.143 340.019 528.164 339.416C528.203 338.284 528.82 337.263 528.344 336.148C528.853 334.993 530.347 334.081 531.452 333.53C531.88 333.316 532.387 333.223 532.922 333.218L532.922 333.217ZM529.881 333.786C529.929 333.794 529.973 333.831 530.016 333.877C530.009 334.074 529.815 334.069 529.684 334.132C529.48 334.383 529.182 334.5 528.934 334.775C528.68 335.056 528.395 335.812 528.058 335.895C527.889 335.937 527.696 335.866 527.549 335.876C527.16 335.9 526.886 336.099 526.491 336.157C527.001 335.042 528.591 334.141 529.831 333.789C529.847 333.785 529.864 333.784 529.881 333.786ZM532.001 336.205C531.361 336.205 530.633 336.889 530.443 337.411C530.366 337.623 530.244 338.039 530.55 338.113C530.893 337.349 531.454 336.613 532.585 336.876C532.802 336.519 532.414 336.257 532.127 336.214C532.085 336.208 532.043 336.205 532.001 336.205ZM527.961 336.321C528.398 337.433 527.648 338.755 527.927 339.971C528.013 340.344 528.309 340.922 527.836 340.934C527.849 339.875 526.534 339.202 525.543 339.825C525.477 339.021 525.362 337.892 525.91 337.289C526.416 336.732 527.113 336.385 527.961 336.321ZM538.092 338.163C538.056 338.774 538.283 339.141 538.44 339.573C538.168 339.744 537.639 339.637 537.332 339.772C537.31 340.674 538.729 340.229 538.945 339.727C538.622 339.258 538.401 338.696 538.146 338.166L538.092 338.163ZM533.163 338.177C532.996 338.654 533.452 339.462 533.707 339.871C533.374 340.194 532.775 339.926 532.33 339.905C531.905 340.576 533.16 340.703 533.699 340.544C533.846 340.5 534.101 340.279 534.136 340.18C534.286 339.76 533.984 339.575 533.829 339.424C533.485 339.088 533.406 338.621 533.163 338.177ZM535.722 338.616C535.689 338.612 535.65 338.623 535.603 338.657C535.573 339.777 536.405 340.703 537.025 341.451C537.328 341.816 537.693 342.025 537.357 342.592C536.815 342.798 535.937 343.388 535.183 343.259C534.783 343.191 534.873 342.737 534.73 342.49C534.454 342.853 534.562 343.402 534.846 343.649C536.175 343.78 537.079 343.214 537.89 342.693C537.858 342.489 538.136 342.12 538.058 341.813C538.032 341.708 537.791 341.554 537.645 341.395C537.05 340.746 536.235 339.777 535.911 339.019C535.882 338.951 535.863 338.635 535.722 338.616ZM526.269 340.71C525.961 340.705 525.683 340.908 525.617 341.385C525.754 341.296 525.863 341.042 526.109 341.163C525.893 341.584 525.945 342.404 526.239 342.671C526.237 342.171 526.159 341.316 526.586 341.342C526.884 341.36 526.945 341.999 527.199 342.144C527.374 341.301 526.781 340.718 526.269 340.71ZM538.406 343.223C537.758 343.519 537.235 343.949 536.388 344.031C536.347 344.171 536.365 344.524 536.387 344.756C537.495 344.733 538.029 343.941 538.406 343.223ZM533.099 343.689C533.423 344.555 534.883 344.861 536.117 344.799C536.115 344.542 536.116 344.282 536.065 344.072C535.104 344.1 533.806 344.06 533.099 343.689ZM532.965 344.382C532.341 344.382 532.868 344.729 532.973 344.865C533.192 345.146 533.449 345.626 533.848 345.839C534.478 346.173 535.73 346.033 536.184 345.849C536.351 345.781 536.487 345.592 536.549 345.433C535.133 345.467 533.454 345.608 532.965 344.382ZM537.679 346.765C538.164 347.156 538.457 347.524 538.922 347.942C539.174 348.168 539.671 348.439 539.721 348.805C539.749 349.009 539.624 349.509 539.577 349.739C539.374 350.746 538.915 352.077 538.479 353.133C538.32 353.517 538.169 353.996 537.959 354.079C537.386 354.306 536.69 354.057 536.203 354.361C536.858 353.224 537.571 352.151 538.212 351.001C538.115 350.773 537.875 350.676 537.805 350.422C538.256 349.571 538.049 346.929 536.899 347.487C537.06 347.251 537.482 347.056 537.679 346.765ZM527.56 347.367C527.665 347.326 528.428 348.318 528.54 348.399C529.159 348.838 529.927 349.184 530.645 349.527C530.689 349.857 530.79 350.284 530.969 350.855C531.166 351.486 531.329 352.377 532.163 351.922C532.084 352.282 531.62 352.506 531.748 352.926C531.828 353.189 532.704 353.515 532.981 353.672C533.493 353.96 533.96 354.12 534.353 354.289C532.566 354.338 530.888 354.483 529.236 354.708C529.038 354.402 529.118 353.929 529.097 353.441C529.074 352.911 529.295 351.716 529.086 351.642C528.851 351.558 528.807 352.035 528.798 352.14C528.754 352.7 529.065 353.885 528.758 354.555C528.423 354.46 528.258 354.209 527.944 354.094C527.821 354.482 528.199 354.501 528.16 354.747C528.109 355.073 527.492 354.8 527.495 355.285C527.897 355.349 528.514 355.16 528.943 355.341C529.055 356.659 529.236 357.907 529.433 359.307C527.724 359.218 526.618 358.368 525.358 357.779C525.28 354.993 524.836 352.102 523.736 349.743C524.89 348.853 526.18 347.911 527.56 347.367L527.56 347.367ZM537.038 348.004C537.115 348.007 537.187 348.026 537.252 348.065C537.503 348.211 537.609 349.044 537.628 349.449C537.645 349.784 537.598 350.123 537.461 350.301C536.757 350.281 536.122 350.197 535.565 350.04C535.603 349.812 535.532 349.588 535.589 349.423C535.744 349.312 536.004 349.314 536.238 349.288C536.036 349.188 535.751 349.148 535.517 349.206C535.511 349.047 535.44 348.949 535.397 348.825C535.743 348.702 536.502 347.977 537.038 348.004ZM535.777 348.034C535.482 348.227 535.23 348.468 534.947 348.673C534.318 348.705 533.975 348.63 533.513 348.269C533.52 348.24 533.566 348.253 533.568 348.217C534.241 348.517 535.097 348.095 535.777 348.034ZM529.145 348.046C529.496 348.29 530.175 348.23 530.692 348.321C530.718 348.486 530.585 348.704 530.587 348.934C530.152 348.908 528.786 348.411 529.145 348.046ZM531.515 348.185C531.552 348.184 531.593 348.188 531.636 348.196C532.195 348.303 532.845 348.56 533.277 348.797C533.542 348.941 533.695 349.12 534.096 349.151C534.094 349.204 534.092 349.258 534.09 349.312C533.87 349.456 533.515 349.454 533.274 349.575C533.63 349.591 533.91 349.677 534.152 349.797L534.136 350.2C533.733 350.475 533.365 350.886 532.891 351.144C532.667 351.267 531.88 351.581 531.641 351.526C531.506 351.494 531.494 351.327 531.44 351.169C531.325 350.831 531.061 350.293 531.038 349.784C531.01 349.181 530.951 348.197 531.515 348.185ZM534.739 349.025C534.772 349.022 534.803 349.023 534.833 349.028C535.349 349.104 535.312 350.173 534.496 349.918C534.434 349.568 534.363 349.468 534.391 349.162C534.522 349.075 534.639 349.033 534.739 349.025ZM535.208 350.241C535.504 350.273 535.737 350.68 536.159 350.653C536.091 351.752 536.127 352.855 535.82 353.862C535.248 352.814 534.912 351.549 534.172 350.657C534.25 350.574 534.32 350.482 534.397 350.397C534.732 350.537 534.95 350.213 535.208 350.241ZM536.908 350.591C537.315 350.588 537.648 350.854 537.831 351.148C537.258 352.13 536.709 353.138 536.029 354.005C536.314 353.166 536.436 351.763 536.479 350.693C536.613 350.628 536.759 350.593 536.908 350.591ZM533.811 350.965C534.49 351.827 534.903 352.935 535.358 354.005C534.283 353.681 533.185 353.156 532.243 352.622C532.428 351.821 533.153 351.406 533.811 350.965ZM540.968 353.809C541.263 353.816 541.556 354.056 541.684 354.25C541.916 354.6 542.133 355.631 542.254 356.179C542.435 356.993 542.028 357.786 541.38 357.943C540.909 358.058 540.186 358.088 539.877 357.939C540.255 357.733 540.823 357.731 541.26 357.59C540.633 357.32 539.707 357.574 538.953 357.527C538.862 356.597 538.794 355.589 538.573 354.855C539.013 354.387 540.075 354.275 540.678 353.889C540.764 353.834 540.865 353.806 540.968 353.809ZM540.916 354.677C540.144 354.7 539.541 354.904 539.197 355.389C539.823 355.429 540.274 354.805 540.916 354.677ZM537.875 354.867C537.93 354.87 537.984 354.876 538.035 354.887C538.446 355.593 538.534 356.766 538.52 357.618C538.265 357.668 538.098 357.814 537.788 357.804C537.709 356.834 537.483 355.814 537.391 354.889C537.539 354.887 537.711 354.86 537.875 354.867ZM533.121 354.878C533.931 354.864 534.717 354.912 535.397 355.054C535.564 356.134 535.502 357.199 535.623 358.257C535.783 359.666 535.663 361.273 535.938 362.592C534.441 363.056 532.4 363.011 530.706 362.497C529.943 360.159 529.527 357.939 529.24 355.298C530.352 355.09 531.771 354.899 533.121 354.878ZM536.716 354.971C536.984 355.938 536.968 357.168 537.099 358.261C536.695 358.35 536.399 358.393 535.964 358.458C535.877 357.323 535.811 356.204 535.826 355.07C536.135 354.967 536.407 354.973 536.716 354.971ZM540.229 355.528C539.924 355.531 539.649 355.598 539.531 355.778C540.062 355.821 540.676 355.737 541.199 355.681C540.961 355.599 540.576 355.523 540.229 355.528ZM540.142 356.313C539.868 356.317 539.627 356.369 539.503 356.502C540.062 356.548 540.793 356.56 541.381 356.547C541.142 356.436 540.598 356.307 540.142 356.313ZM536.573 358.917C536.63 358.908 536.682 358.906 536.725 358.917C536.809 359.656 537.102 360.404 537.065 361.213C536.74 361.322 536.553 361.419 536.118 361.418C536.087 360.731 535.995 359.68 536.023 359.025C536.183 359.035 536.401 358.944 536.573 358.917Z" fill="#231F20"/>
<path id="Vector_33" d="M536.908 350.591C536.759 350.593 536.613 350.628 536.479 350.692C536.436 351.762 536.314 353.166 536.029 354.004C536.709 353.138 537.258 352.13 537.831 351.148C537.648 350.853 537.315 350.587 536.908 350.591ZM533.811 350.965C533.153 351.406 532.429 351.822 532.244 352.623C533.185 353.156 534.284 353.681 535.358 354.005C534.903 352.936 534.49 351.827 533.811 350.965Z" fill="#81B0C4"/>
<path id="Vector_34" d="M535.777 348.034C535.482 348.227 535.23 348.468 534.947 348.673C534.318 348.704 533.975 348.63 533.513 348.269C533.52 348.24 533.567 348.253 533.568 348.217C534.241 348.517 535.097 348.095 535.777 348.034Z" fill="#F0D6B7"/>
<path id="Vector_35" d="M535.612 351.134C535.612 351.195 535.587 351.253 535.545 351.296C535.502 351.338 535.444 351.362 535.383 351.362C535.323 351.362 535.265 351.338 535.222 351.296C535.179 351.253 535.155 351.195 535.155 351.134C535.155 351.074 535.179 351.016 535.222 350.973C535.265 350.93 535.323 350.906 535.383 350.906C535.444 350.906 535.502 350.93 535.545 350.973C535.587 351.016 535.612 351.074 535.612 351.134ZM535.84 352.192C535.84 352.252 535.816 352.31 535.773 352.353C535.73 352.396 535.672 352.42 535.612 352.42C535.551 352.42 535.493 352.396 535.45 352.353C535.407 352.31 535.383 352.252 535.383 352.192C535.383 352.131 535.407 352.073 535.45 352.031C535.493 351.988 535.551 351.964 535.612 351.964C535.672 351.964 535.73 351.988 535.773 352.031C535.816 352.073 535.84 352.131 535.84 352.192Z" fill="#1D1919"/>
</g>
</g>
<g id="logos:python_7">
<rect x="650.972" y="370.737" width="51.6843" height="53.1146" rx="10.5269" fill="#060E1F"/>
<rect x="650.972" y="370.737" width="51.6843" height="53.1146" rx="10.5269" stroke="#12192B" stroke-width="1.23846"/>
<g id="logos:hadoop" clip-path="url(#clip4_577_100)">
<path id="Vector_36" d="M672.334 389.657L670.038 390.048L667.942 391.011L666.163 392.184L664.469 394.349L663.513 395.411L662.588 395.768L662.343 395.141L662.771 394.494L662.867 393.582L663.153 393.594L663.467 393.893L663.382 392.964L663.035 392.72L663.046 392.366L662.223 392.853L661.479 393.773L661.324 394.596L661.642 395.255L661.939 396.374L662.543 396.673L663.178 396.64L663.781 396.274L663.379 398.409L663.781 400.785L663.338 401.882L661.889 403.518L662.147 404.495L662.833 405.627L664.127 406.581L664.814 406.68L665.577 406.707L665.101 408.755L666.852 409.506L669.033 409.807L669.779 409.296L669.837 407.912L670.669 406.469L670.727 405.326L672.736 405.477L674.602 405.296L672.736 406.469L673.052 407.883L674.228 409.807L675.377 410.318L676.295 409.927L676.668 409.146L678.591 407.612L678.964 407.942L681.978 408.063L682.581 407.552L682.638 406.649L682.437 406.259L682.294 403.822L681.289 401.717L681.462 400.785L682.064 401.116L683.758 402.77L684.59 402.83L685.509 402.439L686.427 401.717L686.886 400.153L689.584 400.334L691.221 399.672L692.541 398.379L693.488 396.514L693.717 394.319L693.517 391.763L693 389.477L692.483 388.756L691.766 388.515L690.503 389.958L689.355 390.379L688.35 388.635L687.346 387.673L686.8 387.312L684.619 385.417L682.868 384.425L681.117 384.274L679.079 384.635L677.3 385.327L676.065 386.379L675.09 387.613L674.085 387.913L672.334 389.657Z" fill="#FFFF00"/>
<path id="Vector_37" d="M665.674 395.086C663.707 397.489 664.144 400.404 664.689 403.261C664.399 402.491 664.108 401.721 663.817 400.951L663.495 398.832C663.526 398.11 663.556 397.388 663.587 396.666L664.414 394.597L665.654 392.671L667.583 390.987L669.697 390.072L672.177 389.735L669.88 392.479C668.036 393.106 666.949 393.528 665.674 395.086" fill="#FFFFCC"/>
<path id="Vector_38" d="M674.934 387.762C673.566 389.159 672.82 390.214 671.949 391.85C671.327 393.021 670.629 394.149 669.974 395.303C669.643 395.888 669.612 396.377 669.513 397.051L668.548 395.848C668.702 395.367 668.855 394.885 669.008 394.404L670.57 391.468L673.877 388.051C674.229 387.954 674.582 387.858 674.934 387.762ZM681.687 384.296C680.591 384.726 678.773 384.868 678.647 386.185C678.557 387.12 678.714 387.59 679.252 388.58C677.923 387.139 677.594 387.362 675.026 387.81L676.128 386.173L678.058 384.922L680.538 384.344L681.687 384.296Z" fill="#FFFFCC"/>
<path id="Vector_39" d="M684.709 402.111C685.073 402.347 685.065 402.518 685.004 402.68C685.292 402.559 685.58 402.438 685.867 402.318L686.426 401.532L686.841 400.411L686.311 399.993L683.994 400.303C683.936 400.467 683.879 400.631 683.821 400.794C683.837 401.027 683.854 401.259 683.87 401.491C683.944 401.629 684.018 401.767 684.093 401.905C684.208 401.965 684.322 402.025 684.437 402.086C684.528 402.094 684.618 402.103 684.709 402.111ZM684.493 397.959C683.331 398.31 683.34 398.407 682.998 399.615C683.45 398.854 683.785 398.469 684.493 397.959ZM692.216 388.924C692.01 389.024 691.808 389.072 691.68 389.27C691.402 389.696 691.164 390.054 690.704 390.353C690.473 390.504 690.233 390.602 689.988 390.682C689.784 390.748 689.662 390.689 689.489 390.819C689.592 390.838 689.694 390.857 689.797 390.876H690.477L691.315 390.333L691.808 389.791L692.216 388.924ZM673.714 391.625C673.257 392.935 672.858 394.058 672.166 395.244C673.052 394.243 673.59 393.392 674.098 392.26C674.296 391.82 674.333 391.304 674.883 391.496C674.907 391.935 674.996 392.374 675.021 392.813C675.318 390.582 676.155 389.649 678.102 388.783L676.45 388.99L674.897 389.352L674.133 390.514L673.714 391.625ZM677.486 391.573C677.906 393.643 678.51 395.631 678.773 397.734C678.943 399.101 678.962 399.757 678.306 400.937C677.588 400.888 677.143 400.973 676.449 401.211C673.687 402.16 672.103 403.554 670.242 400.744L672.024 401.624C672.448 401.537 672.871 401.45 673.295 401.362C674.043 400.906 674.79 400.45 675.538 399.993L677.288 399.632L677.856 397.152L677.436 393.872C677.42 393.355 677.404 392.839 677.387 392.322C677.42 392.073 677.453 391.823 677.486 391.573ZM682.243 404.384C682.011 406.067 682.778 406.971 682.46 407.435C682.371 407.567 682.249 407.796 682.113 407.859C681.627 408.084 680.96 407.817 680.912 407.949H679.31L678.669 407.665L679.655 406.451C679.976 405.719 680.296 404.987 680.616 404.255L681.233 402.034H681.553L682.243 404.384Z" fill="#CCCC00"/>
<path id="Vector_40" d="M679.55 399.494C679.681 400.258 679.907 400.439 680.25 401.179C680.021 402.385 679.655 403.819 679.213 404.883C679.027 405.332 678.877 405.58 678.549 405.927C677.995 406.513 677.435 407.023 676.807 407.531C676.355 407.896 676.039 407.713 675.481 407.63C675.244 408.081 675.179 408.331 674.742 408.56C674.07 408.912 673.47 408.154 672.942 407.708C673.323 408.331 673.704 408.953 674.084 409.576C674.347 409.834 674.61 410.092 674.873 410.351L675.538 410.454L676.426 409.886C676.582 409.576 676.738 409.266 676.894 408.956C677.223 408.698 677.552 408.44 677.88 408.181C678.283 407.82 678.686 407.458 679.088 407.096L679.852 405.96L680.542 404.617C680.839 403.687 681.134 402.757 681.43 401.827C681.455 401.474 681.479 401.121 681.504 400.768C681.134 400.596 680.765 400.424 680.395 400.252C680.124 399.985 679.822 399.761 679.55 399.494ZM670.707 404.875C671.951 404.875 673.265 404.803 674.404 404.255C674.727 403.748 675.045 403.334 675.44 402.886C675.081 403.597 674.968 403.999 674.873 404.798L674.503 405.366C673.566 405.392 672.63 405.417 671.693 405.443C671.389 405.409 671.085 405.374 670.781 405.34C670.748 405.305 670.715 405.271 670.682 405.237C670.69 405.116 670.699 404.995 670.707 404.875ZM670.534 403.971L670.438 403.054C670.225 404.395 670.276 405.293 669.687 406.494C669.247 407.028 668.706 407.514 668.085 407.774C668.138 408.103 668.154 408.309 668.123 408.55C668.014 409.419 666.356 409.035 665.674 409L668.956 409.886L669.696 409.576C669.778 409.077 669.86 408.577 669.943 408.078L670.633 406.735L670.756 405.908L670.534 403.971ZM668.685 396.403C668.651 397.055 668.611 397.327 668.885 397.902C669.234 398.634 669.662 399.322 670.041 400.045L670.164 398.598C669.671 397.867 669.178 397.135 668.685 396.403M663.625 401.327C663.518 401.565 663.412 401.803 663.305 402.041C663.598 403.078 663.86 403.735 664.419 404.64C664.321 405.007 664.248 405.167 664.024 405.466C663.532 405.387 663.095 405.364 662.596 405.366C663.147 405.813 663.697 406.261 664.248 406.709C664.519 406.657 664.79 406.605 665.062 406.554L665.875 405.702L664.716 403.816C664.352 402.987 663.989 402.157 663.625 401.327ZM692.22 388.581C692.555 390.161 692.988 391.62 692.947 393.239C692.898 395.225 692.529 397.734 690.773 398.931C688.806 400.273 686.497 399.638 684.339 399.063L686.977 400.2C687.798 400.243 688.62 400.286 689.442 400.329C690.001 400.157 690.559 399.985 691.118 399.812C691.554 399.434 691.989 399.055 692.425 398.676L693.411 396.506L693.78 394.001C693.682 393.183 693.583 392.365 693.485 391.547L692.942 389.119C692.702 388.94 692.461 388.76 692.22 388.581ZM662.868 393.292C661.975 393.901 661.625 394.168 661.723 395.297L661.989 396.311L662.368 396.579L662.835 396.742L663.68 396.532C663.825 396.062 663.97 395.592 664.114 395.122L662.913 395.74H662.635C662.531 395.573 662.427 395.405 662.323 395.238L662.702 394.656L662.902 393.548C662.987 393.575 663.072 393.603 663.158 393.63C663.261 393.715 663.365 393.801 663.469 393.886L663.425 393.304L663.213 392.931C663.143 392.868 663.072 392.806 663.002 392.744L662.868 393.292ZM682.901 384.399C683.693 385.17 684.666 385.84 685.3 386.783C685.545 387.147 685.817 387.334 685.296 387.849C685.847 387.684 686.052 387.702 686.494 387.758C687.297 387.86 688.049 389.056 688.097 389.913C688.088 389.994 687.874 390.176 687.253 390.355C687.241 390.38 686.903 390.307 686.911 390.331C686.976 390.516 687.062 390.544 687.194 390.631C687.222 390.836 687.241 391.154 687.374 391.379C687.765 391.371 688.147 391.416 688.53 391.495C688.658 391.719 688.639 391.943 688.628 392.167L689.072 392.09C689.031 391.737 688.99 391.384 688.949 391.031C689.08 390.798 689.212 390.566 689.343 390.333L688.776 388.99C688.415 388.629 688.053 388.267 687.691 387.905L687.587 387.9C687.181 387.638 686.774 387.377 686.367 387.115L684.378 385.41L682.901 384.399ZM684.236 390.763C684.194 390.84 684.131 390.962 684.05 391.047C684.38 391.374 684.543 391.593 684.661 392.056C684.287 392.25 683.914 392.444 683.541 392.638L682.594 393.59C682.178 393.355 682.075 393.175 681.874 392.728C681.639 392.793 681.418 392.856 681.224 392.781C681.347 392.782 681.422 392.75 681.545 392.671L682.148 392.015C682.502 391.733 682.857 391.451 683.212 391.17L683.909 390.932C683.998 390.894 684.147 390.802 684.236 390.763Z" fill="#CCCC00"/>
<path id="Vector_41" d="M685.266 391.93C684.079 392.6 682.942 393.273 682.335 394.545C682.335 392.931 683.882 392.22 685.266 391.93M682.099 388.754C681.217 389.384 680.594 390.655 680.672 391.893C680.385 390.821 680.487 389.807 681.369 389.067C681.518 388.991 681.666 388.915 681.815 388.839C681.91 388.811 682.004 388.783 682.099 388.754Z" fill="#CCCC00"/>
<path id="Vector_42" d="M693.961 391.678C693.801 390.622 693.536 389.597 693.169 388.859C693.124 388.769 693.056 388.678 692.972 388.591C692.789 388.402 692.518 388.223 692.239 388.123C691.943 388.016 691.631 387.994 691.383 388.13C691.319 388.165 691.259 388.211 691.206 388.267C691.045 388.438 690.91 388.645 690.774 388.852C690.623 389.083 690.472 389.315 690.29 389.478C690.08 389.666 689.817 389.78 689.568 389.885C689.464 389.619 689.338 389.363 689.193 389.12C689.023 388.836 688.83 388.571 688.617 388.305C688.462 388.11 688.285 387.933 688.092 387.78C687.908 387.633 687.72 387.51 687.502 387.366C686.916 386.982 686.417 386.523 685.908 386.055C685.676 385.843 685.443 385.628 685.214 385.431C684.002 384.383 682.872 383.876 681.662 383.796C680.461 383.717 679.193 384.062 677.696 384.723C676.973 385.041 676.437 385.418 675.969 385.871C675.523 386.304 675.144 386.802 674.727 387.384C674.485 387.402 674.27 387.44 674.05 387.532C673.809 387.633 673.566 387.797 673.274 388.066C673.071 388.254 672.873 388.446 672.678 388.644C672.5 388.825 672.325 389.009 672.154 389.197C670.791 389.426 669.68 389.679 668.685 390.083C667.668 390.496 666.772 391.064 665.851 391.919C665.488 392.255 665.158 392.627 664.864 393.029C664.584 393.414 664.344 393.818 664.134 394.244C663.949 394.458 663.765 394.673 663.565 394.862C663.37 395.046 663.163 395.2 662.93 395.294L662.93 395.294C662.795 395.349 662.739 395.381 662.733 395.379C662.726 395.375 662.722 395.354 662.713 395.314C663.047 394.98 663.099 394.489 663.13 394.002C663.17 394.052 663.209 394.114 663.249 394.179C663.293 394.25 663.338 394.324 663.392 394.396L663.619 394.696L663.699 394.321C663.766 394.008 663.816 393.591 663.738 393.229C663.688 392.994 663.584 392.785 663.402 392.636C663.42 392.589 663.436 392.545 663.452 392.502C663.509 392.35 663.568 392.193 663.617 392.045L663.716 391.752L663.423 391.805C663.034 391.876 662.197 392.358 661.608 392.998C661.39 393.236 661.201 393.499 661.078 393.775C660.95 394.062 660.892 394.362 660.942 394.663C660.985 394.926 661.111 395.184 661.339 395.427C661.38 395.603 661.419 395.755 661.46 395.892C661.507 396.048 661.557 396.188 661.621 396.326C661.792 396.699 662.065 396.928 662.382 397.034C662.636 397.12 662.917 397.124 663.193 397.061C663.137 397.405 663.103 397.752 663.092 398.101C663.074 398.589 663.091 399.127 663.143 399.752C663.167 400.043 663.206 400.332 663.258 400.618C663.207 400.765 663.155 400.913 663.103 401.06L662.862 401.747L662.333 402.297C662.168 402.467 662.003 402.638 661.839 402.809C661.825 402.824 661.769 402.88 661.719 402.93C661.385 403.267 661.319 403.334 661.414 403.926C661.475 404.305 661.593 404.672 661.764 405.012C661.928 405.339 662.148 405.657 662.43 405.954C662.782 406.324 663.359 406.783 663.963 407.024C664.309 407.161 664.665 407.229 664.999 407.172C664.982 407.226 664.965 407.28 664.946 407.334C664.894 407.488 664.835 407.639 664.77 407.788C664.36 408.729 664.781 409.221 665.436 409.534C665.763 409.69 666.152 409.796 666.513 409.895C666.587 409.915 666.661 409.935 666.754 409.962C667.182 410.083 667.922 410.306 668.598 410.35C669.335 410.399 670 410.24 670.178 409.546C670.248 409.271 670.29 409.061 670.306 408.855C670.321 408.664 670.316 408.47 670.294 408.231C670.504 407.743 670.594 407.606 670.747 407.37C670.777 407.324 670.814 407.268 670.825 407.25C670.99 406.995 671.067 406.813 671.095 406.608C671.122 406.411 671.099 406.214 671.065 405.914C671.062 405.885 671.057 405.844 671.05 405.788C671.474 405.846 671.902 405.877 672.33 405.88C672.545 405.882 672.759 405.875 672.974 405.863C672.919 405.893 672.865 405.922 672.806 405.954L672.727 405.997C672.157 406.303 672.133 406.884 672.312 407.482C672.472 408.021 672.803 408.572 673.011 408.907C673.447 409.611 673.863 410.207 674.368 410.531C674.896 410.871 675.501 410.911 676.281 410.468C676.678 410.243 676.803 410.014 676.971 409.704C677.023 409.61 677.08 409.507 677.143 409.406C677.307 409.292 677.715 408.939 678.115 408.592C678.252 408.474 678.388 408.357 678.542 408.225C678.648 408.307 678.776 408.364 678.93 408.402C679.131 408.453 679.37 408.475 679.656 408.497C679.871 408.513 680.57 408.513 681.022 408.513C681.161 408.513 681.277 408.513 681.346 408.513C681.813 408.516 682.189 408.49 682.473 408.322C682.776 408.141 682.956 407.823 682.995 407.251C683.013 406.997 683.016 406.84 682.982 406.68C682.951 406.53 682.889 406.394 682.784 406.196C682.778 405.949 682.771 405.701 682.765 405.454C682.758 405.192 682.751 404.93 682.745 404.668C682.737 404.359 682.704 404.107 682.645 403.86C682.585 403.615 682.5 403.379 682.387 403.096C682.316 402.917 682.25 402.737 682.187 402.556L682.023 402.618L682.048 402.609L682.187 402.556V402.555C682.089 402.279 681.993 402.011 681.858 401.724C681.867 401.669 681.876 401.609 681.885 401.545L682.145 401.808L682.528 402.195C682.82 402.49 683.087 402.758 683.401 402.952C683.726 403.153 684.091 403.27 684.564 403.246C685.058 403.222 685.588 403.003 686.024 402.666C686.446 402.34 686.784 401.9 686.925 401.413L687.048 400.991L687.146 400.654C687.84 400.777 688.585 400.817 689.304 400.738C689.998 400.661 690.669 400.476 691.247 400.153C692.098 399.677 692.735 398.977 693.193 398.146H693.194C693.706 397.217 693.992 396.122 694.101 394.995C694.188 394.091 694.141 392.863 693.961 391.678ZM684.97 399.273C684.57 399.132 684.292 398.926 683.941 398.694C684.036 399.145 684.08 399.623 683.952 400.074C683.75 400.789 683.424 401.96 684.351 402.176C684.704 402.258 684.864 402.246 685.362 401.977C684.959 402.072 684.756 402.049 684.479 401.995C684.227 401.947 684.094 401.78 684.024 401.583C684.112 401.649 684.255 401.685 684.5 401.747C685.187 401.92 685.842 401.574 685.97 401.074C686.044 400.783 686.032 400.629 686.19 400.232C686.332 400.278 686.479 400.32 686.63 400.358L686.374 401.231C686.154 401.986 685.293 402.594 684.533 402.58C683.831 402.567 683.385 402.106 682.9 401.654C682.566 401.343 682.245 401.045 681.926 400.75C681.052 400.461 680.351 400.123 679.54 399.494C680.117 400.204 680.509 400.598 681.314 400.952C681.197 402.203 680.782 403.116 680.428 404.314C680.268 404.856 679.003 407.026 678.653 407.238C678.403 407.388 676.837 408.77 676.543 408.952C676.324 409.257 676.131 409.679 675.802 409.861C674.797 410.418 674.151 409.352 673.611 408.452C673.364 408.042 672.681 406.861 673.277 406.53C673.84 406.217 674.156 405.994 674.731 405.598C674.815 405.76 674.96 405.915 675.054 406.077L674.992 405.548C674.954 405.229 674.955 404.969 674.98 404.648C675.003 404.337 675.026 404.026 675.05 403.715C674.963 404.031 674.79 404.347 674.704 404.663C674.67 404.79 674.641 404.892 674.624 404.987C673.335 405.263 672.054 405.28 670.764 405.039C670.681 404.538 670.581 404.017 670.497 403.643C670.472 404.062 670.488 405.219 670.486 405.868C670.484 406.37 670.464 406.542 670.217 406.969C669.986 407.369 669.888 407.459 669.564 408.135C669.591 408.562 669.591 408.843 669.483 409.248C669.303 409.921 667.49 409.4 667.011 409.262C666.422 409.093 665.204 408.842 665.51 408.019C665.78 407.295 665.951 406.531 666.082 405.518C665.003 403.888 663.999 401.655 663.806 399.677C663.657 398.141 663.746 397.195 664.064 396.255C664.566 394.766 665.27 393.478 666.398 392.44C667.92 391.04 669.343 390.478 671.572 390.123C671.036 390.751 670.506 391.416 669.928 392.128C669.343 392.85 668.996 393.578 668.624 394.367C668.111 395.457 668.122 395.872 668.802 396.829C669.388 397.653 669.705 398.024 669.961 398.831C669.749 399.287 669.672 399.673 669.601 400.296C670.319 401.118 670.852 401.681 671.549 401.855C672.232 402.025 672.803 401.992 673.415 401.665C674.773 400.937 676.029 399.998 677.561 399.959C678.27 398.133 678.198 396.608 677.858 394.842C677.626 393.635 677.532 392.493 677.46 391.263C677.173 392.53 677.119 393.643 677.332 394.905C677.589 396.425 677.789 398.105 677.074 399.441C675.689 399.552 674.502 400.435 673.253 401.113C672.751 401.385 672.229 401.412 671.673 401.252C671.158 401.104 670.81 400.746 670.254 400.075C670.246 399.401 670.391 399.09 670.686 398.48C671.161 397.5 671.684 396.587 672.259 395.623C671.555 396.513 670.889 397.257 670.335 398.152C670.123 397.52 669.82 397.199 669.318 396.487C668.829 395.792 668.777 395.487 669.144 394.683C669.512 393.874 669.824 393.164 670.451 392.455C671.534 391.229 672.527 389.865 673.711 388.658C674.354 388.003 674.616 388.025 675.469 387.89C676.24 387.767 676.993 387.613 677.779 387.421C677.018 387.496 676.283 387.523 675.543 387.542L675.52 387.543C676.248 386.568 676.671 386.025 677.854 385.486C680.767 384.161 682.618 384.017 684.906 386.033C685.499 386.555 686.017 387.062 686.618 387.513C686.4 387.532 686.213 387.573 685.964 387.675C686.266 387.615 686.616 387.675 686.93 387.735C687.018 387.795 687.108 387.853 687.201 387.911C687.626 388.173 687.866 388.317 688.154 388.736C688.457 389.179 688.71 389.622 688.933 390.11C688.787 390.055 688.664 390.009 688.555 389.975C688.433 389.917 688.3 389.89 688.166 389.899C688.032 389.908 687.903 389.951 687.789 390.025L687.771 390.033C687.536 390.153 687.173 390.29 686.929 390.331C687.053 390.376 687.328 390.393 687.458 390.339C687.475 390.332 687.493 390.326 687.511 390.322C687.451 390.429 687.414 390.548 687.402 390.672C687.387 390.835 687.417 391 687.489 391.145L687.49 391.147C687.512 391.201 687.542 391.251 687.576 391.287C687.465 391.33 687.351 391.379 687.234 391.432C687.777 391.346 688.266 391.331 688.796 391.404C688.831 391.579 688.866 391.764 688.899 391.953L688.702 391.969C688.697 391.969 688.692 391.97 688.686 391.97C688.436 391.761 688.156 391.796 687.775 391.887C686.614 392.164 686.887 392.846 686.353 393.874C686.908 393.165 686.866 392.422 687.77 392.198C687.98 392.146 688.123 392.08 688.266 392.103C688.009 392.238 687.788 392.462 687.7 392.722C687.452 393.455 687.606 394.073 687.333 394.759C687.671 394.146 687.691 393.548 687.993 392.904C688.101 392.672 688.503 392.302 688.75 392.296L688.953 392.292C689.013 392.699 689.049 393.104 689.026 393.44C688.984 394.053 688.832 394.962 688.741 395.31C689.046 394.899 689.186 394.027 689.32 393.413C689.46 392.774 689.424 392.007 689.302 391.321C689.134 390.379 690.06 390.532 690.597 390.088C690.992 389.762 691.264 389.241 691.627 388.872C691.986 388.506 692.552 389.044 692.693 389.401C693.306 390.955 693.585 393.399 693.423 394.965C693.241 396.722 692.431 398.64 690.952 399.505C689.067 400.607 686.844 399.934 684.97 399.273ZM682.291 407.077C682.229 407.802 681.999 407.849 681.391 407.838C681.115 407.833 680.016 407.828 679.737 407.803C679.343 407.767 679.121 407.73 679.001 407.636C679.62 407.16 680.672 405.194 680.878 404.517C681.095 403.801 681.332 403.177 681.509 402.516C681.59 402.793 681.654 403.066 681.772 403.36C681.969 403.85 682.066 404.153 682.08 404.679L682.125 406.344C682.294 406.655 682.321 406.722 682.291 407.076M663.656 401.585C664.049 403.01 664.719 404.41 665.461 405.588V405.608C665.415 405.811 665.361 406.008 665.248 406.166C664.717 406.91 663.367 405.818 662.976 405.4C662.549 404.943 662.263 404.402 662.195 403.894C662.145 403.524 662.194 403.515 662.44 403.253L663.437 402.195L663.656 401.585ZM662.905 392.622C662.804 392.848 662.732 393.02 662.684 393.197C662.472 393.963 662.78 394.647 662.116 395.202C662.428 395.861 662.413 396.124 663.139 395.82C663.419 395.702 663.649 395.537 663.856 395.342C663.756 395.614 663.664 395.889 663.581 396.166C663.566 396.213 663.553 396.26 663.539 396.307C663.021 396.538 662.338 396.684 662.077 396.113C661.95 395.836 661.879 395.564 661.786 395.213C660.932 394.286 662.209 393.061 662.905 392.622ZM663.325 393.604C663.219 393.494 663.135 393.419 662.998 393.435C663.01 393.341 663.025 393.251 663.047 393.166C663.058 393.122 663.069 393.079 663.082 393.036C663.259 393.144 663.305 393.34 663.325 393.604ZM688.946 390.14C688.979 390.211 689.01 390.283 689.041 390.357C689.016 390.377 688.991 390.397 688.968 390.419C688.926 390.316 688.865 390.223 688.789 390.144C688.84 390.142 688.893 390.141 688.946 390.14M681.677 401.751H681.677L681.677 401.752L681.677 401.751ZM662.993 395.465H662.993L662.987 395.449L662.993 395.465ZM659.978 395.242C660.114 393.629 660.413 392.932 661.507 391.718C660.135 392.731 659.793 393.192 659.978 395.242Z" fill="black"/>
<path id="Vector_43" d="M659.624 393.924C659.775 393.198 659.916 392.924 660.343 392.329C659.65 392.836 659.56 393.044 659.624 393.924M675.721 383.804C674.899 384.011 674.742 384.171 674.496 385.015C674.889 384.397 675.115 384.196 675.721 383.804Z" fill="black"/>
<path id="Vector_44" d="M677.017 383.681C675.387 384.099 674.908 384.397 674.366 386.377C675.054 384.927 675.576 384.393 677.017 383.681M680.528 390.898C680.702 390.091 681.011 389.314 682.206 388.712C680.621 389.128 680.324 389.826 680.528 390.898ZM690.611 390.953C691.549 390.603 692.002 389.812 692.226 388.882C691.859 389.662 691.292 390.314 690.522 390.713C690.109 390.927 689.845 390.852 689.384 390.807C689.853 390.948 690.15 391.125 690.611 390.953ZM684.218 391.744C684.098 391.479 683.883 391.275 683.62 391.175C683.851 391.046 684.077 390.911 684.253 390.743C683.736 390.993 683.135 390.932 682.691 391.246C682.301 391.522 681.762 392.398 681.365 392.77C681.652 392.653 681.929 392.45 682.184 392.237C682.186 392.44 682.24 392.638 682.341 392.81C682.441 392.983 682.585 393.124 682.756 393.217C682.61 393.418 682.493 393.642 682.41 393.88C683.166 392.941 684.261 392.233 685.291 391.93C685.003 391.926 684.662 391.982 684.315 392.102C684.302 391.977 684.269 391.856 684.218 391.744ZM683.131 398.834C683.094 399.077 683.044 399.379 683.007 399.622C683.105 399.347 683.223 399.027 683.338 398.765C683.459 398.487 683.527 398.461 683.784 398.315C683.966 398.211 684.297 398.068 684.479 397.964C684.291 397.997 683.955 398.07 683.768 398.103C683.267 398.191 683.209 398.317 683.131 398.834ZM674.58 389.453C673.999 390.055 673.434 392.12 673.254 392.946C673.538 392.26 674.249 390.34 674.794 389.852C674.945 389.717 675.05 389.634 675.163 389.573C674.773 390.259 674.801 390.43 674.938 391.349C675.055 390.415 675.363 390.054 675.869 389.357C676.423 389.211 676.942 389.036 677.511 388.804C676.87 388.88 676.229 388.95 675.587 389.013C675.048 389.067 674.962 389.058 674.58 389.453Z" fill="black"/>
<path id="Vector_45" d="M682.494 392.968C682.444 392.856 682.437 392.728 682.477 392.611C682.516 392.494 682.598 392.399 682.705 392.346C682.763 392.317 682.827 392.301 682.891 392.3C682.955 392.3 683.019 392.313 683.078 392.341C683.137 392.368 683.189 392.408 683.232 392.459C683.275 392.509 683.306 392.569 683.325 392.633C683.113 392.798 682.919 392.992 682.756 393.217C682.646 393.171 682.549 393.087 682.494 392.968M687.456 390.957C687.474 390.765 687.63 390.623 687.814 390.641C687.902 390.651 687.983 390.696 688.04 390.768C688.096 390.839 688.123 390.932 688.115 391.024C688.111 391.064 688.101 391.103 688.085 391.139C687.917 391.169 687.749 391.22 687.576 391.287C687.503 391.209 687.446 391.068 687.456 390.957Z" fill="#FFFFCC"/>
</g>
</g>
<g id="logos:python_8">
<rect x="786.871" y="301.991" width="53.081" height="54.55" rx="10.8114" fill="#060E1F"/>
<rect x="786.871" y="301.991" width="53.081" height="54.55" rx="10.8114" stroke="#12192B" stroke-width="1.27193"/>
<g id="skill-icons:gcp-light">
<g id="Group_6">
<path id="Vector_46" d="M818.988 323.25L821.925 320.313L822.12 319.077C816.769 314.21 808.262 314.762 803.437 320.228C802.097 321.746 801.103 323.639 800.573 325.593L801.625 325.445L807.498 324.476L807.952 324.013C810.564 321.143 814.982 320.757 817.999 323.198L818.988 323.25Z" fill="#EA4335"/>
<path id="Vector_47" d="M826.108 325.507C825.433 323.021 824.047 320.786 822.12 319.077L817.999 323.198C818.858 323.9 819.546 324.788 820.012 325.795C820.478 326.802 820.709 327.901 820.688 329.01V329.742C822.714 329.742 824.357 331.384 824.357 333.41C824.357 335.436 822.714 337.038 820.688 337.038H813.341L812.62 337.821V342.221L813.341 342.911H820.688C825.958 342.952 830.263 338.755 830.304 333.485C830.316 331.912 829.94 330.361 829.208 328.969C828.476 327.577 827.411 326.388 826.108 325.507Z" fill="#4285F4"/>
<path id="Vector_48" d="M806.004 342.911H813.341V337.038H806.004C805.485 337.038 804.971 336.925 804.5 336.708L803.459 337.027L800.501 339.964L800.244 340.964C801.902 342.216 803.926 342.92 806.004 342.911Z" fill="#34A853"/>
<path id="Vector_49" d="M806.004 323.858C800.734 323.89 796.488 328.187 796.519 333.457C796.528 334.909 796.868 336.34 797.513 337.641C798.159 338.942 799.093 340.078 800.244 340.964L804.5 336.708C802.653 335.874 801.833 333.701 802.667 331.854C803.501 330.008 805.674 329.187 807.52 330.021C808.334 330.389 808.985 331.041 809.353 331.854L813.609 327.599C812.716 326.431 811.564 325.485 810.245 324.836C808.926 324.188 807.474 323.853 806.004 323.858" fill="#FBBC05"/>
</g>
</g>
</g>
<circle id="circle2" cx="661.353" cy="211.588" r="121.794" fill="#4271EB" fill-opacity="0.1" stroke="#4271EB"/>
<g id="circle3">
<circle id="circle" cx="661.353" cy="210.294" r="60.1765" fill="#4271EB"/>
<g id="ph:brain">
<g id="Vector_50">
<path d="M682.625 210.254C682.623 208.432 682.106 206.649 681.132 205.109C680.159 203.57 678.77 202.338 677.125 201.555V201.316C677.123 199.545 676.552 197.82 675.494 196.399C674.437 194.978 672.949 193.934 671.253 193.424C669.557 192.913 667.741 192.962 666.074 193.564C664.408 194.165 662.979 195.287 662 196.763C661.021 195.287 659.592 194.165 657.926 193.564C656.259 192.962 654.443 192.913 652.747 193.424C651.051 193.934 649.564 194.978 648.506 196.399C647.448 197.82 646.877 199.545 646.875 201.316V201.555C645.229 202.336 643.838 203.567 642.864 205.107C641.891 206.646 641.374 208.43 641.374 210.252C641.374 212.074 641.891 213.858 642.864 215.397C643.838 216.937 645.229 218.168 646.875 218.949V219.191C646.877 220.963 647.448 222.687 648.506 224.108C649.564 225.53 651.051 226.573 652.747 227.084C654.443 227.594 656.259 227.545 657.926 226.944C659.592 226.342 661.021 225.221 662 223.744C662.979 225.221 664.408 226.342 666.074 226.944C667.741 227.545 669.557 227.594 671.253 227.084C672.949 226.573 674.437 225.53 675.494 224.108C676.552 222.687 677.123 220.963 677.125 219.191V218.949C678.769 218.167 680.159 216.935 681.132 215.396C682.105 213.858 682.623 212.075 682.625 210.254ZM655.125 224.691C653.769 224.691 652.461 224.19 651.451 223.284C650.442 222.378 649.803 221.131 649.658 219.782C650.102 219.846 650.551 219.878 651 219.879H652.375C652.74 219.879 653.089 219.734 653.347 219.476C653.605 219.218 653.75 218.868 653.75 218.504C653.75 218.139 653.605 217.789 653.347 217.531C653.089 217.274 652.74 217.129 652.375 217.129H651C649.377 217.131 647.805 216.558 646.564 215.512C645.322 214.467 644.49 213.016 644.216 211.416C643.942 209.816 644.242 208.17 645.064 206.771C645.887 205.371 647.178 204.308 648.709 203.769C648.977 203.674 649.209 203.498 649.373 203.266C649.537 203.034 649.625 202.757 649.625 202.473V201.316C649.625 199.858 650.204 198.459 651.236 197.427C652.267 196.396 653.666 195.816 655.125 195.816C656.584 195.816 657.983 196.396 659.014 197.427C660.046 198.459 660.625 199.858 660.625 201.316V213.048C659.115 211.69 657.156 210.94 655.125 210.941C654.76 210.941 654.411 211.086 654.153 211.344C653.895 211.602 653.75 211.952 653.75 212.316C653.75 212.681 653.895 213.031 654.153 213.288C654.411 213.546 654.76 213.691 655.125 213.691C656.584 213.691 657.983 214.271 659.014 215.302C660.046 216.334 660.625 217.733 660.625 219.191C660.625 220.65 660.046 222.049 659.014 223.08C657.983 224.112 656.584 224.691 655.125 224.691ZM673 217.129H671.625C671.26 217.129 670.911 217.274 670.653 217.531C670.395 217.789 670.25 218.139 670.25 218.504C670.25 218.868 670.395 219.218 670.653 219.476C670.911 219.734 671.26 219.879 671.625 219.879H673C673.449 219.878 673.898 219.846 674.342 219.782C674.228 220.839 673.81 221.84 673.139 222.664C672.469 223.488 671.573 224.1 670.562 224.426C669.551 224.752 668.466 224.778 667.441 224.501C666.415 224.224 665.491 223.656 664.781 222.865C664.071 222.074 663.606 221.095 663.441 220.045C663.276 218.995 663.419 217.92 663.852 216.95C664.285 215.98 664.99 215.155 665.881 214.577C666.772 213.999 667.812 213.691 668.875 213.691C669.24 213.691 669.589 213.546 669.847 213.288C670.105 213.031 670.25 212.681 670.25 212.316C670.25 211.952 670.105 211.602 669.847 211.344C669.589 211.086 669.24 210.941 668.875 210.941C666.844 210.94 664.885 211.69 663.375 213.048V201.316C663.375 199.858 663.954 198.459 664.986 197.427C666.017 196.396 667.416 195.816 668.875 195.816C670.334 195.816 671.733 196.396 672.764 197.427C673.796 198.459 674.375 199.858 674.375 201.316V202.473C674.375 202.757 674.463 203.034 674.627 203.266C674.791 203.498 675.023 203.674 675.291 203.769C676.822 204.308 678.113 205.371 678.936 206.771C679.758 208.17 680.058 209.816 679.784 211.416C679.51 213.016 678.678 214.467 677.436 215.512C676.195 216.558 674.623 217.131 673 217.129ZM675.75 208.191C675.75 208.556 675.605 208.906 675.347 209.163C675.089 209.421 674.74 209.566 674.375 209.566H673.688C672.046 209.566 670.473 208.914 669.312 207.754C668.152 206.594 667.5 205.02 667.5 203.379V202.691C667.5 202.327 667.645 201.977 667.903 201.719C668.161 201.461 668.51 201.316 668.875 201.316C669.24 201.316 669.589 201.461 669.847 201.719C670.105 201.977 670.25 202.327 670.25 202.691V203.379C670.25 204.29 670.612 205.165 671.257 205.809C671.901 206.454 672.776 206.816 673.688 206.816H674.375C674.74 206.816 675.089 206.961 675.347 207.219C675.605 207.477 675.75 207.827 675.75 208.191ZM650.313 209.566H649.625C649.26 209.566 648.911 209.421 648.653 209.163C648.395 208.906 648.25 208.556 648.25 208.191C648.25 207.827 648.395 207.477 648.653 207.219C648.911 206.961 649.26 206.816 649.625 206.816H650.313C651.224 206.816 652.099 206.454 652.743 205.809C653.388 205.165 653.75 204.29 653.75 203.379V202.691C653.75 202.327 653.895 201.977 654.153 201.719C654.411 201.461 654.76 201.316 655.125 201.316C655.49 201.316 655.839 201.461 656.097 201.719C656.355 201.977 656.5 202.327 656.5 202.691V203.379C656.5 205.02 655.848 206.594 654.688 207.754C653.527 208.914 651.954 209.566 650.313 209.566Z" fill="#F7F9FC"/>
<path d="M682.625 210.254C682.623 208.432 682.106 206.649 681.132 205.109C680.159 203.57 678.77 202.338 677.125 201.555V201.316C677.123 199.545 676.552 197.82 675.494 196.399C674.437 194.978 672.949 193.934 671.253 193.424C669.557 192.913 667.741 192.962 666.074 193.564C664.408 194.165 662.979 195.287 662 196.763C661.021 195.287 659.592 194.165 657.926 193.564C656.259 192.962 654.443 192.913 652.747 193.424C651.051 193.934 649.564 194.978 648.506 196.399C647.448 197.82 646.877 199.545 646.875 201.316V201.555C645.229 202.336 643.838 203.567 642.864 205.107C641.891 206.646 641.374 208.43 641.374 210.252C641.374 212.074 641.891 213.858 642.864 215.397C643.838 216.937 645.229 218.168 646.875 218.949V219.191C646.877 220.963 647.448 222.687 648.506 224.108C649.564 225.53 651.051 226.573 652.747 227.084C654.443 227.594 656.259 227.545 657.926 226.944C659.592 226.342 661.021 225.221 662 223.744C662.979 225.221 664.408 226.342 666.074 226.944C667.741 227.545 669.557 227.594 671.253 227.084C672.949 226.573 674.437 225.53 675.494 224.108C676.552 222.687 677.123 220.963 677.125 219.191V218.949C678.769 218.167 680.159 216.935 681.132 215.396C682.105 213.858 682.623 212.075 682.625 210.254ZM655.125 224.691C653.769 224.691 652.461 224.19 651.451 223.284C650.442 222.378 649.803 221.131 649.658 219.782C650.102 219.846 650.551 219.878 651 219.879H652.375C652.74 219.879 653.089 219.734 653.347 219.476C653.605 219.218 653.75 218.868 653.75 218.504C653.75 218.139 653.605 217.789 653.347 217.531C653.089 217.274 652.74 217.129 652.375 217.129H651C649.377 217.131 647.805 216.558 646.564 215.512C645.322 214.467 644.49 213.016 644.216 211.416C643.942 209.816 644.242 208.17 645.064 206.771C645.887 205.371 647.178 204.308 648.709 203.769C648.977 203.674 649.209 203.498 649.373 203.266C649.537 203.034 649.625 202.757 649.625 202.473V201.316C649.625 199.858 650.204 198.459 651.236 197.427C652.267 196.396 653.666 195.816 655.125 195.816C656.584 195.816 657.983 196.396 659.014 197.427C660.046 198.459 660.625 199.858 660.625 201.316V213.048C659.115 211.69 657.156 210.94 655.125 210.941C654.76 210.941 654.411 211.086 654.153 211.344C653.895 211.602 653.75 211.952 653.75 212.316C653.75 212.681 653.895 213.031 654.153 213.288C654.411 213.546 654.76 213.691 655.125 213.691C656.584 213.691 657.983 214.271 659.014 215.302C660.046 216.334 660.625 217.733 660.625 219.191C660.625 220.65 660.046 222.049 659.014 223.08C657.983 224.112 656.584 224.691 655.125 224.691ZM673 217.129H671.625C671.26 217.129 670.911 217.274 670.653 217.531C670.395 217.789 670.25 218.139 670.25 218.504C670.25 218.868 670.395 219.218 670.653 219.476C670.911 219.734 671.26 219.879 671.625 219.879H673C673.449 219.878 673.898 219.846 674.342 219.782C674.228 220.839 673.81 221.84 673.139 222.664C672.469 223.488 671.573 224.1 670.562 224.426C669.551 224.752 668.466 224.778 667.441 224.501C666.415 224.224 665.491 223.656 664.781 222.865C664.071 222.074 663.606 221.095 663.441 220.045C663.276 218.995 663.419 217.92 663.852 216.95C664.285 215.98 664.99 215.155 665.881 214.577C666.772 213.999 667.812 213.691 668.875 213.691C669.24 213.691 669.589 213.546 669.847 213.288C670.105 213.031 670.25 212.681 670.25 212.316C670.25 211.952 670.105 211.602 669.847 211.344C669.589 211.086 669.24 210.941 668.875 210.941C666.844 210.94 664.885 211.69 663.375 213.048V201.316C663.375 199.858 663.954 198.459 664.986 197.427C666.017 196.396 667.416 195.816 668.875 195.816C670.334 195.816 671.733 196.396 672.764 197.427C673.796 198.459 674.375 199.858 674.375 201.316V202.473C674.375 202.757 674.463 203.034 674.627 203.266C674.791 203.498 675.023 203.674 675.291 203.769C676.822 204.308 678.113 205.371 678.936 206.771C679.758 208.17 680.058 209.816 679.784 211.416C679.51 213.016 678.678 214.467 677.436 215.512C676.195 216.558 674.623 217.131 673 217.129ZM675.75 208.191C675.75 208.556 675.605 208.906 675.347 209.163C675.089 209.421 674.74 209.566 674.375 209.566H673.688C672.046 209.566 670.473 208.914 669.312 207.754C668.152 206.594 667.5 205.02 667.5 203.379V202.691C667.5 202.327 667.645 201.977 667.903 201.719C668.161 201.461 668.51 201.316 668.875 201.316C669.24 201.316 669.589 201.461 669.847 201.719C670.105 201.977 670.25 202.327 670.25 202.691V203.379C670.25 204.29 670.612 205.165 671.257 205.809C671.901 206.454 672.776 206.816 673.688 206.816H674.375C674.74 206.816 675.089 206.961 675.347 207.219C675.605 207.477 675.75 207.827 675.75 208.191ZM650.313 209.566H649.625C649.26 209.566 648.911 209.421 648.653 209.163C648.395 208.906 648.25 208.556 648.25 208.191C648.25 207.827 648.395 207.477 648.653 207.219C648.911 206.961 649.26 206.816 649.625 206.816H650.313C651.224 206.816 652.099 206.454 652.743 205.809C653.388 205.165 653.75 204.29 653.75 203.379V202.691C653.75 202.327 653.895 201.977 654.153 201.719C654.411 201.461 654.76 201.316 655.125 201.316C655.49 201.316 655.839 201.461 656.097 201.719C656.355 201.977 656.5 202.327 656.5 202.691V203.379C656.5 205.02 655.848 206.594 654.688 207.754C653.527 208.914 651.954 209.566 650.313 209.566Z" fill="#F0F4FF"/>
</g>
</g>
</g>
<path id="linha02" d="M256.667 381C256.667 383.946 259.054 386.333 262 386.333C264.946 386.333 267.333 383.946 267.333 381C267.333 378.055 264.946 375.667 262 375.667C259.054 375.667 256.667 378.055 256.667 381ZM606.667 450C606.667 452.946 609.054 455.333 612 455.333C614.946 455.333 617.333 452.946 617.333 450C617.333 447.055 614.946 444.667 612 444.667C609.054 444.667 606.667 447.055 606.667 450ZM262 382H409.917V380H262V382ZM478.917 451H612V449H478.917V451ZM478.917 449C460.415 449 445.417 434.002 445.417 415.5H443.417C443.417 435.106 459.311 451 478.917 451V449ZM409.917 382C428.419 382 443.417 396.999 443.417 415.5H445.417C445.417 395.894 429.523 380 409.917 380V382Z" fill="#12192B"/>
<path id="linha01" d="M0.666667 165C0.666667 167.946 3.05448 170.333 6 170.333C8.94552 170.333 11.3333 167.946 11.3333 165C11.3333 162.054 8.94552 159.667 6 159.667C3.05448 159.667 0.666667 162.054 0.666667 165ZM453.667 292C453.667 294.946 456.054 297.333 459 297.333C461.946 297.333 464.333 294.946 464.333 292C464.333 289.054 461.946 286.667 459 286.667C456.054 286.667 453.667 289.054 453.667 292ZM6 166H206.1V164H6V166ZM241.1 201V256H243.1V201H241.1ZM278.1 293H459V291H278.1V293ZM241.1 256C241.1 276.435 257.665 293 278.1 293V291C258.77 291 243.1 275.33 243.1 256H241.1ZM206.1 166C225.43 166 241.1 181.67 241.1 201H243.1C243.1 180.565 226.534 164 206.1 164V166Z" fill="#12192B"/>
</g>
</g>
<defs>
<linearGradient id="paint0_linear_577_100" x1="781.633" y1="370.039" x2="2322.16" y2="1888.94" gradientUnits="userSpaceOnUse">
<stop stop-color="#387EB8"/>
<stop offset="1" stop-color="#366994"/>
</linearGradient>
<linearGradient id="paint1_linear_577_100" x1="931.268" y1="575.175" x2="2585.3" y2="2132.38" gradientUnits="userSpaceOnUse">
<stop stop-color="#FFE052"/>
<stop offset="1" stop-color="#FFC331"/>
</linearGradient>
<linearGradient id="paint2_linear_577_100" x1="1224.47" y1="36.4445" x2="2398.77" y2="2525.62" gradientUnits="userSpaceOnUse">
<stop stop-color="#E6AD10"/>
<stop offset="1" stop-color="#C87E0E"/>
</linearGradient>
<linearGradient id="paint3_linear_577_100" x1="1191.58" y1="44.4126" x2="2171.23" y2="1944.4" gradientUnits="userSpaceOnUse">
<stop stop-color="#F6D751"/>
<stop offset="1" stop-color="#E6AD10"/>
</linearGradient>
<linearGradient id="paint4_linear_577_100" x1="1053.75" y1="52.3809" x2="1650.19" y2="1465.91" gradientUnits="userSpaceOnUse">
<stop stop-color="#F9E589"/>
<stop offset="1" stop-color="#F6D751"/>
</linearGradient>
<linearGradient id="paint5_linear_577_100" x1="853.67" y1="185.633" x2="844.253" y2="213.453" gradientUnits="userSpaceOnUse">
<stop stop-color="#114A8B"/>
<stop offset="1" stop-color="#0669BC"/>
</linearGradient>
<linearGradient id="paint6_linear_577_100" x1="856.611" y1="198.598" x2="854.433" y2="199.334" gradientUnits="userSpaceOnUse">
<stop stop-opacity="0.3"/>
<stop offset="0.071" stop-opacity="0.2"/>
<stop offset="0.321" stop-opacity="0.1"/>
<stop offset="0.623" stop-opacity="0.05"/>
<stop offset="1" stop-opacity="0"/>
</linearGradient>
<linearGradient id="paint7_linear_577_100" x1="855.413" y1="184.822" x2="865.75" y2="212.361" gradientUnits="userSpaceOnUse">
<stop stop-color="#3CCBF4"/>
<stop offset="1" stop-color="#2892DF"/>
</linearGradient>
<clipPath id="clip0_577_100">
<rect width="31.3742" height="31.3742" fill="white" transform="translate(597.085 10.8423)"/>
</clipPath>
<clipPath id="clip1_577_100">
<rect width="23.9138" height="31.9352" fill="white" transform="translate(758.664 36.4442)"/>
</clipPath>
<clipPath id="clip2_577_100">
<rect width="31.041" height="31.041" fill="white" transform="translate(839.95 182.41)"/>
</clipPath>
<clipPath id="clip3_577_100">
<rect width="31.041" height="31.041" fill="white" transform="translate(516.421 332.527)"/>
</clipPath>
<clipPath id="clip4_577_100">
<rect width="34.6768" height="27.2461" fill="white" transform="translate(659.476 383.671)"/>
</clipPath>
</defs>
</svg>
