<svg width="17" height="19" viewBox="0 0 17 19" fill="none" xmlns="http://www.w3.org/2000/svg">
<path d="M6.42867 15.1231C2.66263 16.2457 2.66263 13.2521 1.15622 12.8778M11.7011 17.3683V14.472C11.7294 14.1151 11.6809 13.7563 11.5588 13.4195C11.4367 13.0827 11.2439 12.7756 10.9931 12.5186C13.3582 12.2567 15.8438 11.3661 15.8438 7.27975C15.8436 6.23484 15.4391 5.23 14.714 4.47321C15.0573 3.55903 15.033 2.54856 14.6462 1.65171C14.6462 1.65171 13.7574 1.38976 11.7011 2.75935C9.97478 2.29446 8.15501 2.29446 6.42867 2.75935C4.37241 1.38976 3.48363 1.65171 3.48363 1.65171C3.09676 2.54856 3.07249 3.55903 3.41584 4.47321C2.68533 5.23561 2.2804 6.24953 2.28603 7.3022C2.28603 11.3586 4.77161 12.2492 7.13668 12.5411C6.88888 12.7955 6.69776 13.0989 6.57578 13.4316C6.45379 13.7643 6.40367 14.1188 6.42867 14.472V17.3683" stroke="#7C7D80" stroke-width="1.5" stroke-linecap="round" stroke-linejoin="round"/>
</svg>
