<svg width="20" height="20" viewBox="0 0 20 20" fill="none" xmlns="http://www.w3.org/2000/svg">
<path d="M16.4293 5.12204C16.0737 4.76632 15.6516 4.48414 15.1869 4.29162C14.7223 4.09909 14.2243 4 13.7213 4C13.2184 4 12.7204 4.09909 12.2557 4.29162C11.7911 4.48414 11.3689 4.76632 11.0134 5.12204L10.2755 5.85994L9.53758 5.12204C8.81939 4.40385 7.84531 4.00037 6.82963 4.00037C5.81395 4.00037 4.83987 4.40385 4.12167 5.12204C3.40348 5.84024 3 6.81432 3 7.83C3 8.84568 3.40348 9.81976 4.12167 10.538L4.85957 11.2759L10.2755 16.6918L15.6914 11.2759L16.4293 10.538C16.785 10.1824 17.0672 9.76024 17.2597 9.2956C17.4522 8.83096 17.5513 8.33295 17.5513 7.83C17.5513 7.32705 17.4522 6.82903 17.2597 6.36439C17.0672 5.89975 16.785 5.4776 16.4293 5.12204Z" stroke="url(#paint0_linear_230_30)" stroke-width="1.25304" stroke-linecap="round" stroke-linejoin="round"/>
<defs>
<linearGradient id="paint0_linear_230_30" x1="11.9143" y1="10.259" x2="17.0761" y2="10.259" gradientUnits="userSpaceOnUse">
<stop stop-color="#4271EB"/>
<stop offset="1" stop-color="#6BBAFF"/>
</linearGradient>
</defs>
</svg>
