<svg width="17" height="17" viewBox="0 0 17 17" fill="none" xmlns="http://www.w3.org/2000/svg">
<path d="M11.5921 5.79443C12.8222 5.79443 14.002 6.2831 14.8718 7.15292C15.7416 8.02275 16.2303 9.20249 16.2303 10.4326V15.8438H13.1382V10.4326C13.1382 10.0226 12.9753 9.62932 12.6853 9.33938C12.3954 9.04944 12.0022 8.88655 11.5921 8.88655C11.1821 8.88655 10.7888 9.04944 10.4989 9.33938C10.209 9.62932 10.0461 10.0226 10.0461 10.4326V15.8438H6.95395V10.4326C6.95395 9.20249 7.44261 8.02275 8.31244 7.15292C9.18226 6.2831 10.362 5.79443 11.5921 5.79443Z" stroke="#7C7D80" stroke-width="1.5" stroke-linecap="round" stroke-linejoin="round"/>
<path d="M3.86183 6.56744H0.769714V15.8438H3.86183V6.56744Z" stroke="#7C7D80" stroke-width="1.5" stroke-linecap="round" stroke-linejoin="round"/>
<path d="M2.31577 4.24836C3.16964 4.24836 3.86183 3.55617 3.86183 2.70231C3.86183 1.84844 3.16964 1.15625 2.31577 1.15625C1.46191 1.15625 0.769714 1.84844 0.769714 2.70231C0.769714 3.55617 1.46191 4.24836 2.31577 4.24836Z" stroke="#7C7D80" stroke-width="1.5" stroke-linecap="round" stroke-linejoin="round"/>
</svg>
