<svg width="57" height="56" viewBox="0 0 57 56" fill="none" xmlns="http://www.w3.org/2000/svg">
<rect x="1" y="1" width="54.5" height="53.0875" rx="4" fill="url(#paint0_linear_353_346)"/>
<rect x="1" y="1" width="54.5" height="53.0875" rx="4" stroke="#F7F9FC" stroke-width="2"/>
<path d="M39.388 18.3752C38.8795 18.8201 38.318 19.2439 37.7036 19.6464C37.1103 20.049 36.4853 20.3986 35.8285 20.6952C35.1717 20.9918 34.4937 21.2355 33.7945 21.4262C33.0953 21.5957 32.3961 21.6804 31.6969 21.6804C31.4638 21.6804 31.2414 21.6804 31.0295 21.6804C30.8176 21.6804 30.6057 21.6698 30.3939 21.6486C30.3303 22.2843 30.2985 22.9305 30.2985 23.5873C30.2985 25.3882 30.3091 27.1998 30.3303 29.0219C30.3515 30.844 30.3621 32.7827 30.3621 34.8379C30.3621 35.9396 30.5528 37.0096 30.9342 38.0478C31.3367 39.0648 31.9088 39.8063 32.6503 40.2725C31.7605 40.6962 31.0083 41.1411 30.3939 41.6073C29.8006 42.0946 29.2709 42.7832 28.8048 43.673C28.4446 42.8044 27.8832 42.1052 27.1204 41.5755C26.3577 41.067 25.4996 40.6326 24.5461 40.2725C24.9699 39.658 25.2877 38.8635 25.4996 37.8889C25.7114 36.893 25.8174 35.929 25.8174 34.9968C25.8174 34.0857 25.8174 33.2806 25.8174 32.5814C25.8174 31.861 25.8174 31.1936 25.8174 30.5792C25.8386 29.9647 25.8492 29.3715 25.8492 28.7994C25.8703 28.2274 25.8809 27.6129 25.8809 26.9561C25.9021 26.2993 25.9127 25.5789 25.9127 24.795C25.9127 24.011 25.9127 23.0894 25.9127 22.03C25.9127 21.8605 25.9127 21.7016 25.9127 21.5533C25.9127 21.405 25.8915 21.2461 25.8492 21.0766C24.4508 20.8223 23.116 20.5681 21.8447 20.3138C20.5946 20.0384 19.4505 19.9007 18.4123 19.9007C17.9462 19.9007 17.4483 19.9536 16.9186 20.0596L16.8868 19.9642C18.031 19.6252 18.9632 19.2121 19.6836 18.7248C20.4251 18.2374 21.1667 17.6548 21.9083 16.9768C23.01 17.2946 23.9423 17.5489 24.705 17.7395C25.489 17.9302 26.2093 18.0785 26.8662 18.1845C27.5442 18.2904 28.201 18.3646 28.8366 18.4069C29.4934 18.4281 30.235 18.4387 31.0613 18.4387C30.8494 18.0785 30.7011 17.7607 30.6163 17.4853C30.5316 17.1887 30.4786 16.8814 30.4574 16.5636C31.1566 17.0086 31.8028 17.3582 32.3961 17.6124C33.0105 17.8455 33.5932 18.0256 34.1441 18.1527C34.6949 18.2586 35.2458 18.3222 35.7967 18.3434C36.3476 18.3646 36.9196 18.3752 37.5129 18.3752C37.8519 18.3752 38.1591 18.3646 38.4345 18.3434C38.7312 18.3222 39.0278 18.2904 39.3244 18.248L39.388 18.3752Z" fill="#F7F9FC"/>
<defs>
<linearGradient id="paint0_linear_353_346" x1="6.4999" y1="6.0001" x2="65.4999" y2="93" gradientUnits="userSpaceOnUse">
<stop offset="0.266925" stop-color="#4271EB"/>
<stop offset="1" stop-color="#6BBAFF"/>
</linearGradient>
</defs>
</svg>
