<svg width="30" height="36" viewBox="0 0 30 36" fill="none" xmlns="http://www.w3.org/2000/svg">
<path d="M29.3369 2.94998C28.6823 3.5227 27.9596 4.06816 27.1687 4.58634C26.4051 5.10452 25.6005 5.55452 24.7551 5.93634C23.9096 6.31816 23.0369 6.63179 22.1369 6.87725C21.2369 7.09543 20.3369 7.20452 19.4369 7.20452C19.1369 7.20452 18.8505 7.20452 18.5778 7.20452C18.3051 7.20452 18.0323 7.19089 17.7596 7.16361C17.6778 7.98179 17.6369 8.81361 17.6369 9.65907C17.6369 11.9772 17.6505 14.3091 17.6778 16.6545C17.7051 19 17.7187 21.4954 17.7187 24.1409C17.7187 25.5591 17.9642 26.9363 18.4551 28.2727C18.9732 29.5818 19.7096 30.5363 20.6642 31.1363C19.5187 31.6818 18.5505 32.2545 17.7596 32.8545C16.996 33.4818 16.3142 34.3682 15.7142 35.5136C15.2505 34.3954 14.5278 33.4954 13.546 32.8136C12.5642 32.1591 11.4596 31.6 10.2323 31.1363C10.7778 30.3454 11.1869 29.3227 11.4596 28.0682C11.7323 26.7863 11.8687 25.5454 11.8687 24.3454C11.8687 23.1727 11.8687 22.1363 11.8687 21.2363C11.8687 20.3091 11.8687 19.45 11.8687 18.6591C11.896 17.8682 11.9096 17.1045 11.9096 16.3682C11.9369 15.6318 11.9505 14.8409 11.9505 13.9954C11.9778 13.15 11.9914 12.2227 11.9914 11.2136C11.9914 10.2045 11.9914 9.01816 11.9914 7.65452C11.9914 7.43634 11.9914 7.23179 11.9914 7.04089C11.9914 6.84998 11.9642 6.64543 11.9096 6.42725C10.1096 6.09998 8.39142 5.7727 6.75506 5.44543C5.14597 5.09088 3.67324 4.91361 2.33688 4.91361C1.73688 4.91361 1.09597 4.98179 0.414151 5.11816L0.373242 4.99543C1.84597 4.55907 3.04597 4.02725 3.97324 3.39997C4.92779 2.7727 5.88233 2.0227 6.83688 1.14997C8.25506 1.55907 9.45506 1.88634 10.4369 2.13179C11.446 2.37725 12.3732 2.56816 13.2187 2.70452C14.0914 2.84089 14.9369 2.93634 15.7551 2.99088C16.6005 3.01816 17.5551 3.03179 18.6187 3.03179C18.346 2.56816 18.1551 2.15907 18.046 1.80452C17.9369 1.4227 17.8687 1.02725 17.8414 0.618158C18.7414 1.19088 19.5732 1.64088 20.3369 1.96816C21.1278 2.26816 21.8778 2.49998 22.5869 2.66361C23.296 2.79998 24.0051 2.88179 24.7142 2.90907C25.4232 2.93634 26.1596 2.94998 26.9232 2.94998C27.3596 2.94998 27.7551 2.93634 28.1096 2.90907C28.4914 2.88179 28.8732 2.84089 29.2551 2.78634L29.3369 2.94998Z" fill="#EEF5FF"/>
</svg>
